<mxfile host="app.diagrams.net" agent="Mozilla/5.0 (Windows NT 10.0; Win64; x64) AppleWebKit/537.36 (KHTML, like Gecko) Chrome/134.0.0.0 Safari/537.36" version="26.1.1" pages="2">
  <diagram name="RM - Mô hình quan hệ (relational diagram)" id="GJlLPOi3d1mDV5nm6P7y">
    <mxGraphModel dx="1969" dy="958" grid="1" gridSize="10" guides="1" tooltips="1" connect="1" arrows="1" fold="1" page="1" pageScale="1" pageWidth="2339" pageHeight="3300" math="0" shadow="0">
      <root>
        <mxCell id="0" />
        <mxCell id="1" parent="0" />
        <mxCell id="YPx_fVKoxpwIJUbFyd35-1" value="Ban" style="rounded=0;whiteSpace=wrap;html=1;" parent="1" vertex="1">
          <mxGeometry x="690" y="660" width="120" height="60" as="geometry" />
        </mxCell>
        <mxCell id="YPx_fVKoxpwIJUbFyd35-2" value="HoaDon" style="rounded=0;whiteSpace=wrap;html=1;" parent="1" vertex="1">
          <mxGeometry x="1060" y="660" width="120" height="60" as="geometry" />
        </mxCell>
        <mxCell id="YPx_fVKoxpwIJUbFyd35-3" value="ChiTietHoaDon" style="rounded=0;whiteSpace=wrap;html=1;" parent="1" vertex="1">
          <mxGeometry x="1460" y="840" width="120" height="60" as="geometry" />
        </mxCell>
        <mxCell id="YPx_fVKoxpwIJUbFyd35-4" value="Mon" style="rounded=0;whiteSpace=wrap;html=1;" parent="1" vertex="1">
          <mxGeometry x="1460" y="1134" width="120" height="60" as="geometry" />
        </mxCell>
        <mxCell id="YPx_fVKoxpwIJUbFyd35-5" value="DanhMucMon" style="rounded=0;whiteSpace=wrap;html=1;" parent="1" vertex="1">
          <mxGeometry x="1370" y="1380" width="120" height="60" as="geometry" />
        </mxCell>
        <mxCell id="YPx_fVKoxpwIJUbFyd35-6" value="Có" style="rhombus;whiteSpace=wrap;html=1;" parent="1" vertex="1">
          <mxGeometry x="910" y="670" width="60" height="40" as="geometry" />
        </mxCell>
        <mxCell id="YPx_fVKoxpwIJUbFyd35-7" value="Gồm" style="rhombus;whiteSpace=wrap;html=1;" parent="1" vertex="1">
          <mxGeometry x="1490" y="740" width="60" height="40" as="geometry" />
        </mxCell>
        <mxCell id="YPx_fVKoxpwIJUbFyd35-8" value="Chứa" style="rhombus;whiteSpace=wrap;html=1;" parent="1" vertex="1">
          <mxGeometry x="1490" y="1010" width="60" height="40" as="geometry" />
        </mxCell>
        <mxCell id="YPx_fVKoxpwIJUbFyd35-9" value="Thuộc" style="rhombus;whiteSpace=wrap;html=1;" parent="1" vertex="1">
          <mxGeometry x="1690" y="1144" width="60" height="40" as="geometry" />
        </mxCell>
        <mxCell id="YPx_fVKoxpwIJUbFyd35-10" value="" style="endArrow=none;html=1;rounded=0;entryX=0;entryY=0.5;entryDx=0;entryDy=0;exitX=1;exitY=0.5;exitDx=0;exitDy=0;" parent="1" source="YPx_fVKoxpwIJUbFyd35-1" target="YPx_fVKoxpwIJUbFyd35-6" edge="1">
          <mxGeometry width="50" height="50" relative="1" as="geometry">
            <mxPoint x="750" y="640" as="sourcePoint" />
            <mxPoint x="750" y="600" as="targetPoint" />
          </mxGeometry>
        </mxCell>
        <mxCell id="YPx_fVKoxpwIJUbFyd35-11" value="" style="endArrow=none;html=1;rounded=0;exitX=1;exitY=0.5;exitDx=0;exitDy=0;entryX=0;entryY=0.5;entryDx=0;entryDy=0;" parent="1" source="YPx_fVKoxpwIJUbFyd35-6" target="YPx_fVKoxpwIJUbFyd35-2" edge="1">
          <mxGeometry width="50" height="50" relative="1" as="geometry">
            <mxPoint x="980" y="710" as="sourcePoint" />
            <mxPoint x="1030" y="660" as="targetPoint" />
            <Array as="points" />
          </mxGeometry>
        </mxCell>
        <mxCell id="YPx_fVKoxpwIJUbFyd35-12" value="" style="endArrow=none;html=1;rounded=0;exitX=1;exitY=0.5;exitDx=0;exitDy=0;entryX=0.5;entryY=0;entryDx=0;entryDy=0;" parent="1" source="YPx_fVKoxpwIJUbFyd35-2" target="YPx_fVKoxpwIJUbFyd35-7" edge="1">
          <mxGeometry width="50" height="50" relative="1" as="geometry">
            <mxPoint x="1260" y="740" as="sourcePoint" />
            <mxPoint x="1430" y="690" as="targetPoint" />
            <Array as="points">
              <mxPoint x="1520" y="690" />
            </Array>
          </mxGeometry>
        </mxCell>
        <mxCell id="YPx_fVKoxpwIJUbFyd35-13" value="" style="endArrow=none;html=1;rounded=0;entryX=0.5;entryY=1;entryDx=0;entryDy=0;exitX=0.5;exitY=0;exitDx=0;exitDy=0;" parent="1" source="YPx_fVKoxpwIJUbFyd35-3" target="YPx_fVKoxpwIJUbFyd35-7" edge="1">
          <mxGeometry width="50" height="50" relative="1" as="geometry">
            <mxPoint x="1560" y="840" as="sourcePoint" />
            <mxPoint x="1560" y="780" as="targetPoint" />
          </mxGeometry>
        </mxCell>
        <mxCell id="YPx_fVKoxpwIJUbFyd35-14" value="" style="endArrow=none;html=1;rounded=0;entryX=0.5;entryY=1;entryDx=0;entryDy=0;exitX=0.5;exitY=0;exitDx=0;exitDy=0;" parent="1" source="YPx_fVKoxpwIJUbFyd35-8" target="YPx_fVKoxpwIJUbFyd35-3" edge="1">
          <mxGeometry width="50" height="50" relative="1" as="geometry">
            <mxPoint x="1580" y="980" as="sourcePoint" />
            <mxPoint x="1630" y="930" as="targetPoint" />
          </mxGeometry>
        </mxCell>
        <mxCell id="YPx_fVKoxpwIJUbFyd35-15" value="" style="endArrow=none;html=1;rounded=0;entryX=0.5;entryY=1;entryDx=0;entryDy=0;exitX=0.5;exitY=0;exitDx=0;exitDy=0;" parent="1" source="YPx_fVKoxpwIJUbFyd35-4" target="YPx_fVKoxpwIJUbFyd35-8" edge="1">
          <mxGeometry width="50" height="50" relative="1" as="geometry">
            <mxPoint x="1330" y="1114" as="sourcePoint" />
            <mxPoint x="1360" y="1066" as="targetPoint" />
          </mxGeometry>
        </mxCell>
        <mxCell id="YPx_fVKoxpwIJUbFyd35-16" value="" style="endArrow=none;html=1;rounded=0;exitX=1;exitY=0.5;exitDx=0;exitDy=0;entryX=0;entryY=0.5;entryDx=0;entryDy=0;" parent="1" source="YPx_fVKoxpwIJUbFyd35-4" target="YPx_fVKoxpwIJUbFyd35-9" edge="1">
          <mxGeometry width="50" height="50" relative="1" as="geometry">
            <mxPoint x="1550" y="1154" as="sourcePoint" />
            <mxPoint x="1600" y="1104" as="targetPoint" />
          </mxGeometry>
        </mxCell>
        <mxCell id="YPx_fVKoxpwIJUbFyd35-17" value="" style="endArrow=none;html=1;rounded=0;exitX=1;exitY=0.5;exitDx=0;exitDy=0;entryX=0;entryY=0.5;entryDx=0;entryDy=0;" parent="1" source="YPx_fVKoxpwIJUbFyd35-9" target="u7ExXukWMiuUXVfVqPVW-1" edge="1">
          <mxGeometry width="50" height="50" relative="1" as="geometry">
            <mxPoint x="1750" y="1163.5" as="sourcePoint" />
            <mxPoint x="1870" y="1164" as="targetPoint" />
          </mxGeometry>
        </mxCell>
        <mxCell id="ZPMBcaGig59mQZYcYpiM-1" value="" style="endArrow=none;html=1;rounded=0;entryX=0.5;entryY=1;entryDx=0;entryDy=0;exitX=1;exitY=0;exitDx=0;exitDy=0;" parent="1" source="ZPMBcaGig59mQZYcYpiM-2" target="YPx_fVKoxpwIJUbFyd35-1" edge="1">
          <mxGeometry width="50" height="50" relative="1" as="geometry">
            <mxPoint x="640" y="620" as="sourcePoint" />
            <mxPoint x="660" y="620" as="targetPoint" />
          </mxGeometry>
        </mxCell>
        <mxCell id="ZPMBcaGig59mQZYcYpiM-2" value="&lt;i&gt;&lt;u&gt;MaBan&lt;/u&gt;&lt;/i&gt;" style="ellipse;whiteSpace=wrap;html=1;" parent="1" vertex="1">
          <mxGeometry x="580" y="760" width="70" height="40" as="geometry" />
        </mxCell>
        <mxCell id="ZPMBcaGig59mQZYcYpiM-3" value="" style="endArrow=none;html=1;rounded=0;entryX=0.5;entryY=1;entryDx=0;entryDy=0;exitX=0.5;exitY=0;exitDx=0;exitDy=0;" parent="1" source="ZPMBcaGig59mQZYcYpiM-4" target="YPx_fVKoxpwIJUbFyd35-1" edge="1">
          <mxGeometry width="50" height="50" relative="1" as="geometry">
            <mxPoint x="610" y="670" as="sourcePoint" />
            <mxPoint x="690" y="710" as="targetPoint" />
          </mxGeometry>
        </mxCell>
        <mxCell id="ZPMBcaGig59mQZYcYpiM-4" value="TenBan" style="ellipse;whiteSpace=wrap;html=1;" parent="1" vertex="1">
          <mxGeometry x="640" y="790" width="70" height="40" as="geometry" />
        </mxCell>
        <mxCell id="ZPMBcaGig59mQZYcYpiM-5" value="" style="endArrow=none;html=1;rounded=0;entryX=0.5;entryY=1;entryDx=0;entryDy=0;exitX=0.5;exitY=0;exitDx=0;exitDy=0;" parent="1" source="ZPMBcaGig59mQZYcYpiM-6" target="YPx_fVKoxpwIJUbFyd35-1" edge="1">
          <mxGeometry width="50" height="50" relative="1" as="geometry">
            <mxPoint x="599.748737341529" y="715.8578643762694" as="sourcePoint" />
            <mxPoint x="740" y="680" as="targetPoint" />
          </mxGeometry>
        </mxCell>
        <mxCell id="ZPMBcaGig59mQZYcYpiM-6" value="TrangThai" style="ellipse;whiteSpace=wrap;html=1;" parent="1" vertex="1">
          <mxGeometry x="715" y="800" width="70" height="40" as="geometry" />
        </mxCell>
        <mxCell id="ZPMBcaGig59mQZYcYpiM-7" value="" style="endArrow=none;html=1;rounded=0;exitX=0.888;exitY=0.74;exitDx=0;exitDy=0;exitPerimeter=0;entryX=0.5;entryY=0;entryDx=0;entryDy=0;" parent="1" source="ZPMBcaGig59mQZYcYpiM-8" target="YPx_fVKoxpwIJUbFyd35-2" edge="1">
          <mxGeometry width="50" height="50" relative="1" as="geometry">
            <mxPoint x="1035" y="340" as="sourcePoint" />
            <mxPoint x="1135" y="440" as="targetPoint" />
          </mxGeometry>
        </mxCell>
        <mxCell id="ZPMBcaGig59mQZYcYpiM-8" value="MaBan" style="ellipse;whiteSpace=wrap;html=1;" parent="1" vertex="1">
          <mxGeometry x="940" y="570" width="70" height="40" as="geometry" />
        </mxCell>
        <mxCell id="ZPMBcaGig59mQZYcYpiM-9" value="" style="endArrow=none;html=1;rounded=0;exitX=0.888;exitY=0.74;exitDx=0;exitDy=0;exitPerimeter=0;entryX=0.5;entryY=0;entryDx=0;entryDy=0;" parent="1" source="ZPMBcaGig59mQZYcYpiM-10" target="YPx_fVKoxpwIJUbFyd35-2" edge="1">
          <mxGeometry width="50" height="50" relative="1" as="geometry">
            <mxPoint x="1095" y="310" as="sourcePoint" />
            <mxPoint x="1135" y="440" as="targetPoint" />
          </mxGeometry>
        </mxCell>
        <mxCell id="ZPMBcaGig59mQZYcYpiM-10" value="&lt;u&gt;MaHoaDon&lt;/u&gt;" style="ellipse;whiteSpace=wrap;html=1;" parent="1" vertex="1">
          <mxGeometry x="985" y="530" width="70" height="40" as="geometry" />
        </mxCell>
        <mxCell id="ZPMBcaGig59mQZYcYpiM-11" value="" style="endArrow=none;html=1;rounded=0;exitX=0.5;exitY=1;exitDx=0;exitDy=0;entryX=0.5;entryY=0;entryDx=0;entryDy=0;" parent="1" source="ZPMBcaGig59mQZYcYpiM-12" target="YPx_fVKoxpwIJUbFyd35-2" edge="1">
          <mxGeometry width="50" height="50" relative="1" as="geometry">
            <mxPoint x="1185" y="290" as="sourcePoint" />
            <mxPoint x="1135" y="440" as="targetPoint" />
          </mxGeometry>
        </mxCell>
        <mxCell id="ZPMBcaGig59mQZYcYpiM-12" value="TrangThai" style="ellipse;whiteSpace=wrap;html=1;" parent="1" vertex="1">
          <mxGeometry x="1060" y="520" width="70" height="40" as="geometry" />
        </mxCell>
        <mxCell id="ZPMBcaGig59mQZYcYpiM-13" value="" style="endArrow=none;html=1;rounded=0;entryX=0.5;entryY=0;entryDx=0;entryDy=0;exitX=0.5;exitY=0;exitDx=0;exitDy=0;" parent="1" source="ZPMBcaGig59mQZYcYpiM-14" target="YPx_fVKoxpwIJUbFyd35-2" edge="1">
          <mxGeometry width="50" height="50" relative="1" as="geometry">
            <mxPoint x="1365" y="280" as="sourcePoint" />
            <mxPoint x="1135" y="440" as="targetPoint" />
          </mxGeometry>
        </mxCell>
        <mxCell id="ZPMBcaGig59mQZYcYpiM-14" value="NgayLap" style="ellipse;whiteSpace=wrap;html=1;" parent="1" vertex="1">
          <mxGeometry x="1200" y="570" width="70" height="40" as="geometry" />
        </mxCell>
        <mxCell id="ZPMBcaGig59mQZYcYpiM-15" value="" style="endArrow=none;html=1;rounded=0;entryX=0.5;entryY=0;entryDx=0;entryDy=0;exitX=0;exitY=1;exitDx=0;exitDy=0;" parent="1" source="ZPMBcaGig59mQZYcYpiM-16" target="YPx_fVKoxpwIJUbFyd35-2" edge="1">
          <mxGeometry width="50" height="50" relative="1" as="geometry">
            <mxPoint x="1385" y="340" as="sourcePoint" />
            <mxPoint x="1135" y="440" as="targetPoint" />
          </mxGeometry>
        </mxCell>
        <mxCell id="ZPMBcaGig59mQZYcYpiM-16" value="NgayTra" style="ellipse;whiteSpace=wrap;html=1;" parent="1" vertex="1">
          <mxGeometry x="1140" y="530" width="70" height="40" as="geometry" />
        </mxCell>
        <mxCell id="ZPMBcaGig59mQZYcYpiM-17" value="" style="endArrow=none;html=1;rounded=0;entryX=1;entryY=0.5;entryDx=0;entryDy=0;exitX=0;exitY=1;exitDx=0;exitDy=0;" parent="1" source="ZPMBcaGig59mQZYcYpiM-18" target="YPx_fVKoxpwIJUbFyd35-3" edge="1">
          <mxGeometry width="50" height="50" relative="1" as="geometry">
            <mxPoint x="1890" y="840" as="sourcePoint" />
            <mxPoint x="1580" y="850" as="targetPoint" />
          </mxGeometry>
        </mxCell>
        <mxCell id="ZPMBcaGig59mQZYcYpiM-18" value="MaHoaDon" style="ellipse;whiteSpace=wrap;html=1;" parent="1" vertex="1">
          <mxGeometry x="1730" y="790" width="70" height="40" as="geometry" />
        </mxCell>
        <mxCell id="ZPMBcaGig59mQZYcYpiM-19" value="" style="endArrow=none;html=1;rounded=0;exitX=0;exitY=0.5;exitDx=0;exitDy=0;" parent="1" source="ZPMBcaGig59mQZYcYpiM-20" edge="1">
          <mxGeometry width="50" height="50" relative="1" as="geometry">
            <mxPoint x="1780" y="910" as="sourcePoint" />
            <mxPoint x="1580" y="870" as="targetPoint" />
          </mxGeometry>
        </mxCell>
        <mxCell id="ZPMBcaGig59mQZYcYpiM-20" value="SoLuong" style="ellipse;whiteSpace=wrap;html=1;" parent="1" vertex="1">
          <mxGeometry x="1760" y="890" width="70" height="30" as="geometry" />
        </mxCell>
        <mxCell id="ZPMBcaGig59mQZYcYpiM-21" value="" style="endArrow=none;html=1;rounded=0;entryX=1;entryY=0.5;entryDx=0;entryDy=0;exitX=0;exitY=0.5;exitDx=0;exitDy=0;" parent="1" source="ZPMBcaGig59mQZYcYpiM-22" target="YPx_fVKoxpwIJUbFyd35-3" edge="1">
          <mxGeometry width="50" height="50" relative="1" as="geometry">
            <mxPoint x="2010" y="850" as="sourcePoint" />
            <mxPoint x="1700" y="860" as="targetPoint" />
          </mxGeometry>
        </mxCell>
        <mxCell id="ZPMBcaGig59mQZYcYpiM-22" value="MaMon" style="ellipse;whiteSpace=wrap;html=1;" parent="1" vertex="1">
          <mxGeometry x="1750" y="840" width="70" height="40" as="geometry" />
        </mxCell>
        <mxCell id="ZPMBcaGig59mQZYcYpiM-23" value="" style="endArrow=none;html=1;rounded=0;exitX=0;exitY=0;exitDx=0;exitDy=0;entryX=1;entryY=0.5;entryDx=0;entryDy=0;" parent="1" source="ZPMBcaGig59mQZYcYpiM-24" target="YPx_fVKoxpwIJUbFyd35-3" edge="1">
          <mxGeometry width="50" height="50" relative="1" as="geometry">
            <mxPoint x="1920" y="870" as="sourcePoint" />
            <mxPoint x="1610" y="880" as="targetPoint" />
          </mxGeometry>
        </mxCell>
        <mxCell id="ZPMBcaGig59mQZYcYpiM-24" value="ThanhTien" style="ellipse;whiteSpace=wrap;html=1;" parent="1" vertex="1">
          <mxGeometry x="1720" y="920" width="70" height="40" as="geometry" />
        </mxCell>
        <mxCell id="ZPMBcaGig59mQZYcYpiM-25" value="" style="endArrow=none;html=1;rounded=0;exitX=0;exitY=1;exitDx=0;exitDy=0;" parent="1" source="ZPMBcaGig59mQZYcYpiM-26" edge="1">
          <mxGeometry width="50" height="50" relative="1" as="geometry">
            <mxPoint x="1850" y="780" as="sourcePoint" />
            <mxPoint x="1580" y="870" as="targetPoint" />
          </mxGeometry>
        </mxCell>
        <mxCell id="ZPMBcaGig59mQZYcYpiM-26" value="&lt;u&gt;MaChiTietHD&lt;/u&gt;" style="ellipse;whiteSpace=wrap;html=1;" parent="1" vertex="1">
          <mxGeometry x="1640" y="760" width="90" height="40" as="geometry" />
        </mxCell>
        <mxCell id="ZPMBcaGig59mQZYcYpiM-27" value="" style="endArrow=none;html=1;rounded=0;entryX=0;entryY=0.5;entryDx=0;entryDy=0;exitX=1;exitY=0.5;exitDx=0;exitDy=0;" parent="1" source="ZPMBcaGig59mQZYcYpiM-28" target="YPx_fVKoxpwIJUbFyd35-4" edge="1">
          <mxGeometry width="50" height="50" relative="1" as="geometry">
            <mxPoint x="1349.6551703363798" y="1118.195401102764" as="sourcePoint" />
            <mxPoint x="1150" y="1114" as="targetPoint" />
          </mxGeometry>
        </mxCell>
        <mxCell id="ZPMBcaGig59mQZYcYpiM-28" value="&lt;u&gt;MaMon&lt;/u&gt;" style="ellipse;whiteSpace=wrap;html=1;" parent="1" vertex="1">
          <mxGeometry x="1270" y="1094" width="70" height="40" as="geometry" />
        </mxCell>
        <mxCell id="ZPMBcaGig59mQZYcYpiM-29" value="" style="endArrow=none;html=1;rounded=0;exitX=1;exitY=0.5;exitDx=0;exitDy=0;" parent="1" source="ZPMBcaGig59mQZYcYpiM-30" edge="1">
          <mxGeometry width="50" height="50" relative="1" as="geometry">
            <mxPoint x="1515" y="1144" as="sourcePoint" />
            <mxPoint x="1460" y="1164" as="targetPoint" />
          </mxGeometry>
        </mxCell>
        <mxCell id="ZPMBcaGig59mQZYcYpiM-30" value="MaThucDon" style="ellipse;whiteSpace=wrap;html=1;" parent="1" vertex="1">
          <mxGeometry x="1240" y="1144" width="70" height="40" as="geometry" />
        </mxCell>
        <mxCell id="ZPMBcaGig59mQZYcYpiM-31" value="" style="endArrow=none;html=1;rounded=0;exitX=1;exitY=0;exitDx=0;exitDy=0;entryX=0;entryY=0.5;entryDx=0;entryDy=0;" parent="1" source="_iiNwPgH_TM1tSRiTnPf-1" edge="1" target="YPx_fVKoxpwIJUbFyd35-4">
          <mxGeometry width="50" height="50" relative="1" as="geometry">
            <mxPoint x="1380" y="1350" as="sourcePoint" />
            <mxPoint x="1460" y="1160" as="targetPoint" />
          </mxGeometry>
        </mxCell>
        <mxCell id="ZPMBcaGig59mQZYcYpiM-32" value="TenMon" style="ellipse;whiteSpace=wrap;html=1;" parent="1" vertex="1">
          <mxGeometry x="1220" y="1194" width="70" height="40" as="geometry" />
        </mxCell>
        <mxCell id="ZPMBcaGig59mQZYcYpiM-33" value="" style="endArrow=none;html=1;rounded=0;exitX=0.5;exitY=0;exitDx=0;exitDy=0;" parent="1" source="ZPMBcaGig59mQZYcYpiM-34" edge="1">
          <mxGeometry width="50" height="50" relative="1" as="geometry">
            <mxPoint x="1655" y="1264" as="sourcePoint" />
            <mxPoint x="1460" y="1164" as="targetPoint" />
          </mxGeometry>
        </mxCell>
        <mxCell id="ZPMBcaGig59mQZYcYpiM-34" value="Gia" style="ellipse;whiteSpace=wrap;html=1;" parent="1" vertex="1">
          <mxGeometry x="1260" y="1234" width="70" height="40" as="geometry" />
        </mxCell>
        <mxCell id="ZPMBcaGig59mQZYcYpiM-35" value="" style="endArrow=none;html=1;rounded=0;exitX=1;exitY=0.5;exitDx=0;exitDy=0;entryX=0;entryY=0.5;entryDx=0;entryDy=0;" parent="1" source="ZPMBcaGig59mQZYcYpiM-36" target="YPx_fVKoxpwIJUbFyd35-5" edge="1">
          <mxGeometry width="50" height="50" relative="1" as="geometry">
            <mxPoint x="1203.1801948466054" y="1395.8578643762692" as="sourcePoint" />
            <mxPoint x="1490" y="1405" as="targetPoint" />
          </mxGeometry>
        </mxCell>
        <mxCell id="ZPMBcaGig59mQZYcYpiM-36" value="TenDanhMuc" style="ellipse;whiteSpace=wrap;html=1;" parent="1" vertex="1">
          <mxGeometry x="1190" y="1410" width="90" height="40" as="geometry" />
        </mxCell>
        <mxCell id="ZPMBcaGig59mQZYcYpiM-37" value="" style="endArrow=none;html=1;rounded=0;exitX=1;exitY=0.5;exitDx=0;exitDy=0;entryX=0;entryY=0.5;entryDx=0;entryDy=0;" parent="1" source="ZPMBcaGig59mQZYcYpiM-38" target="YPx_fVKoxpwIJUbFyd35-5" edge="1">
          <mxGeometry width="50" height="50" relative="1" as="geometry">
            <mxPoint x="1870.96" y="1306" as="sourcePoint" />
            <mxPoint x="1420" y="1350" as="targetPoint" />
          </mxGeometry>
        </mxCell>
        <mxCell id="ZPMBcaGig59mQZYcYpiM-38" value="&lt;u&gt;MaDanhMuc&lt;/u&gt;" style="ellipse;whiteSpace=wrap;html=1;" parent="1" vertex="1">
          <mxGeometry x="1190" y="1350" width="90" height="40" as="geometry" />
        </mxCell>
        <mxCell id="ZPMBcaGig59mQZYcYpiM-39" value="(1,1)" style="text;html=1;align=center;verticalAlign=middle;resizable=0;points=[];autosize=1;strokeColor=none;fillColor=none;" parent="1" vertex="1">
          <mxGeometry x="1005" y="650" width="50" height="30" as="geometry" />
        </mxCell>
        <mxCell id="ZPMBcaGig59mQZYcYpiM-40" value="(0,n)" style="text;html=1;align=center;verticalAlign=middle;resizable=0;points=[];autosize=1;strokeColor=none;fillColor=none;" parent="1" vertex="1">
          <mxGeometry x="810" y="660" width="50" height="30" as="geometry" />
        </mxCell>
        <mxCell id="ZPMBcaGig59mQZYcYpiM-42" value="(1,1)" style="text;html=1;align=center;verticalAlign=middle;resizable=0;points=[];autosize=1;strokeColor=none;fillColor=none;" parent="1" vertex="1">
          <mxGeometry x="1180" y="690" width="50" height="30" as="geometry" />
        </mxCell>
        <mxCell id="ZPMBcaGig59mQZYcYpiM-43" value="(0,n)" style="text;html=1;align=center;verticalAlign=middle;resizable=0;points=[];autosize=1;strokeColor=none;fillColor=none;" parent="1" vertex="1">
          <mxGeometry x="1470" y="810" width="50" height="30" as="geometry" />
        </mxCell>
        <mxCell id="ZPMBcaGig59mQZYcYpiM-44" value="(1,1)" style="text;html=1;align=center;verticalAlign=middle;resizable=0;points=[];autosize=1;strokeColor=none;fillColor=none;" parent="1" vertex="1">
          <mxGeometry x="1520" y="900" width="50" height="30" as="geometry" />
        </mxCell>
        <mxCell id="ZPMBcaGig59mQZYcYpiM-45" value="(1,1)" style="text;html=1;align=center;verticalAlign=middle;resizable=0;points=[];autosize=1;strokeColor=none;fillColor=none;" parent="1" vertex="1">
          <mxGeometry x="1520" y="1104" width="50" height="30" as="geometry" />
        </mxCell>
        <mxCell id="ZPMBcaGig59mQZYcYpiM-46" value="(0,n)" style="text;html=1;align=center;verticalAlign=middle;resizable=0;points=[];autosize=1;strokeColor=none;fillColor=none;" parent="1" vertex="1">
          <mxGeometry x="1580" y="1134" width="50" height="30" as="geometry" />
        </mxCell>
        <mxCell id="ZPMBcaGig59mQZYcYpiM-47" value="(1,1)" style="text;html=1;align=center;verticalAlign=middle;resizable=0;points=[];autosize=1;strokeColor=none;fillColor=none;" parent="1" vertex="1">
          <mxGeometry x="1810" y="1134" width="50" height="30" as="geometry" />
        </mxCell>
        <mxCell id="u7ExXukWMiuUXVfVqPVW-1" value="ThucDon" style="rounded=0;whiteSpace=wrap;html=1;" parent="1" vertex="1">
          <mxGeometry x="1870" y="1134" width="120" height="60" as="geometry" />
        </mxCell>
        <mxCell id="u7ExXukWMiuUXVfVqPVW-3" value="" style="endArrow=none;html=1;rounded=0;entryX=0.5;entryY=0;entryDx=0;entryDy=0;exitX=0;exitY=0.5;exitDx=0;exitDy=0;" parent="1" source="u7ExXukWMiuUXVfVqPVW-6" target="u7ExXukWMiuUXVfVqPVW-1" edge="1">
          <mxGeometry width="50" height="50" relative="1" as="geometry">
            <mxPoint x="1900" y="1074" as="sourcePoint" />
            <mxPoint x="1450" y="994" as="targetPoint" />
          </mxGeometry>
        </mxCell>
        <mxCell id="u7ExXukWMiuUXVfVqPVW-6" value="&lt;u&gt;MaThucDon&lt;/u&gt;" style="ellipse;whiteSpace=wrap;html=1;" parent="1" vertex="1">
          <mxGeometry x="1990" y="1040" width="80" height="40" as="geometry" />
        </mxCell>
        <mxCell id="u7ExXukWMiuUXVfVqPVW-7" value="" style="endArrow=none;html=1;rounded=0;exitX=0.5;exitY=1;exitDx=0;exitDy=0;entryX=0.5;entryY=0;entryDx=0;entryDy=0;" parent="1" source="u7ExXukWMiuUXVfVqPVW-8" target="u7ExXukWMiuUXVfVqPVW-1" edge="1">
          <mxGeometry width="50" height="50" relative="1" as="geometry">
            <mxPoint x="1745" y="1054" as="sourcePoint" />
            <mxPoint x="1930" y="1130" as="targetPoint" />
          </mxGeometry>
        </mxCell>
        <mxCell id="u7ExXukWMiuUXVfVqPVW-8" value="SoLuong" style="ellipse;whiteSpace=wrap;html=1;" parent="1" vertex="1">
          <mxGeometry x="1880" y="1010" width="70" height="40" as="geometry" />
        </mxCell>
        <mxCell id="u7ExXukWMiuUXVfVqPVW-9" value="" style="endArrow=none;html=1;rounded=0;exitX=0;exitY=0.5;exitDx=0;exitDy=0;entryX=0.5;entryY=0;entryDx=0;entryDy=0;" parent="1" source="u7ExXukWMiuUXVfVqPVW-10" target="u7ExXukWMiuUXVfVqPVW-1" edge="1">
          <mxGeometry width="50" height="50" relative="1" as="geometry">
            <mxPoint x="2105" y="1154" as="sourcePoint" />
            <mxPoint x="1910" y="1054" as="targetPoint" />
          </mxGeometry>
        </mxCell>
        <mxCell id="u7ExXukWMiuUXVfVqPVW-10" value="Ngay" style="ellipse;whiteSpace=wrap;html=1;" parent="1" vertex="1">
          <mxGeometry x="2050" y="1094" width="70" height="40" as="geometry" />
        </mxCell>
        <mxCell id="u7ExXukWMiuUXVfVqPVW-12" value="Thuộc" style="rhombus;whiteSpace=wrap;html=1;" parent="1" vertex="1">
          <mxGeometry x="1520" y="1320" width="60" height="40" as="geometry" />
        </mxCell>
        <mxCell id="u7ExXukWMiuUXVfVqPVW-14" value="" style="endArrow=none;html=1;rounded=0;exitX=0.5;exitY=0;exitDx=0;exitDy=0;entryX=0.75;entryY=1;entryDx=0;entryDy=0;" parent="1" source="u7ExXukWMiuUXVfVqPVW-12" target="YPx_fVKoxpwIJUbFyd35-4" edge="1">
          <mxGeometry width="50" height="50" relative="1" as="geometry">
            <mxPoint x="2020" y="1314" as="sourcePoint" />
            <mxPoint x="1530" y="1196" as="targetPoint" />
          </mxGeometry>
        </mxCell>
        <mxCell id="u7ExXukWMiuUXVfVqPVW-15" value="" style="endArrow=none;html=1;rounded=0;entryX=0.5;entryY=1;entryDx=0;entryDy=0;exitX=1;exitY=0.5;exitDx=0;exitDy=0;" parent="1" source="YPx_fVKoxpwIJUbFyd35-5" target="u7ExXukWMiuUXVfVqPVW-12" edge="1">
          <mxGeometry width="50" height="50" relative="1" as="geometry">
            <mxPoint x="1549" y="1435" as="sourcePoint" />
            <mxPoint x="1549" y="1385" as="targetPoint" />
            <Array as="points">
              <mxPoint x="1550" y="1410" />
            </Array>
          </mxGeometry>
        </mxCell>
        <mxCell id="u7ExXukWMiuUXVfVqPVW-18" value="Được" style="rhombus;whiteSpace=wrap;html=1;" parent="1" vertex="1">
          <mxGeometry x="1085" y="800" width="70" height="50" as="geometry" />
        </mxCell>
        <mxCell id="u7ExXukWMiuUXVfVqPVW-19" value="ThanhToan" style="rounded=0;whiteSpace=wrap;html=1;" parent="1" vertex="1">
          <mxGeometry x="1060" y="920" width="120" height="60" as="geometry" />
        </mxCell>
        <mxCell id="u7ExXukWMiuUXVfVqPVW-20" value="" style="endArrow=none;html=1;rounded=0;entryX=0.5;entryY=1;entryDx=0;entryDy=0;exitX=0.5;exitY=0;exitDx=0;exitDy=0;" parent="1" source="u7ExXukWMiuUXVfVqPVW-18" target="YPx_fVKoxpwIJUbFyd35-2" edge="1">
          <mxGeometry width="50" height="50" relative="1" as="geometry">
            <mxPoint x="1100" y="800" as="sourcePoint" />
            <mxPoint x="1150" y="750" as="targetPoint" />
          </mxGeometry>
        </mxCell>
        <mxCell id="u7ExXukWMiuUXVfVqPVW-21" value="" style="endArrow=none;html=1;rounded=0;entryX=0.5;entryY=1;entryDx=0;entryDy=0;exitX=0.5;exitY=0;exitDx=0;exitDy=0;" parent="1" source="u7ExXukWMiuUXVfVqPVW-19" target="u7ExXukWMiuUXVfVqPVW-18" edge="1">
          <mxGeometry width="50" height="50" relative="1" as="geometry">
            <mxPoint x="1120" y="920" as="sourcePoint" />
            <mxPoint x="1170" y="870" as="targetPoint" />
          </mxGeometry>
        </mxCell>
        <mxCell id="u7ExXukWMiuUXVfVqPVW-22" value="" style="endArrow=none;html=1;rounded=0;exitX=0.888;exitY=0.74;exitDx=0;exitDy=0;exitPerimeter=0;entryX=0;entryY=0.5;entryDx=0;entryDy=0;" parent="1" source="u7ExXukWMiuUXVfVqPVW-23" target="u7ExXukWMiuUXVfVqPVW-19" edge="1">
          <mxGeometry width="50" height="50" relative="1" as="geometry">
            <mxPoint x="980" y="724" as="sourcePoint" />
            <mxPoint x="1005" y="1074" as="targetPoint" />
          </mxGeometry>
        </mxCell>
        <mxCell id="u7ExXukWMiuUXVfVqPVW-23" value="&lt;u&gt;MaThanhToan&lt;/u&gt;" style="ellipse;whiteSpace=wrap;html=1;" parent="1" vertex="1">
          <mxGeometry x="840" y="810" width="100" height="40" as="geometry" />
        </mxCell>
        <mxCell id="u7ExXukWMiuUXVfVqPVW-24" value="" style="endArrow=none;html=1;rounded=0;exitX=0.888;exitY=0.74;exitDx=0;exitDy=0;exitPerimeter=0;" parent="1" source="u7ExXukWMiuUXVfVqPVW-25" edge="1">
          <mxGeometry width="50" height="50" relative="1" as="geometry">
            <mxPoint x="990" y="814" as="sourcePoint" />
            <mxPoint x="1060" y="950" as="targetPoint" />
          </mxGeometry>
        </mxCell>
        <mxCell id="u7ExXukWMiuUXVfVqPVW-25" value="MaHoaDon" style="ellipse;whiteSpace=wrap;html=1;" parent="1" vertex="1">
          <mxGeometry x="820" y="860" width="80" height="40" as="geometry" />
        </mxCell>
        <mxCell id="u7ExXukWMiuUXVfVqPVW-26" value="" style="endArrow=none;html=1;rounded=0;exitX=0.888;exitY=0.74;exitDx=0;exitDy=0;exitPerimeter=0;" parent="1" source="u7ExXukWMiuUXVfVqPVW-27" edge="1">
          <mxGeometry width="50" height="50" relative="1" as="geometry">
            <mxPoint x="1045" y="873" as="sourcePoint" />
            <mxPoint x="1060" y="950" as="targetPoint" />
          </mxGeometry>
        </mxCell>
        <mxCell id="u7ExXukWMiuUXVfVqPVW-27" value="PhuongThuc" style="ellipse;whiteSpace=wrap;html=1;" parent="1" vertex="1">
          <mxGeometry x="810" y="920" width="80" height="40" as="geometry" />
        </mxCell>
        <mxCell id="u7ExXukWMiuUXVfVqPVW-28" value="" style="endArrow=none;html=1;rounded=0;exitX=0;exitY=0.5;exitDx=0;exitDy=0;entryX=1;entryY=0.5;entryDx=0;entryDy=0;" parent="1" source="u7ExXukWMiuUXVfVqPVW-29" target="u7ExXukWMiuUXVfVqPVW-19" edge="1">
          <mxGeometry width="50" height="50" relative="1" as="geometry">
            <mxPoint x="870" y="913" as="sourcePoint" />
            <mxPoint x="940" y="1049" as="targetPoint" />
          </mxGeometry>
        </mxCell>
        <mxCell id="u7ExXukWMiuUXVfVqPVW-29" value="TongTien" style="ellipse;whiteSpace=wrap;html=1;" parent="1" vertex="1">
          <mxGeometry x="1290" y="860" width="80" height="40" as="geometry" />
        </mxCell>
        <mxCell id="u7ExXukWMiuUXVfVqPVW-30" value="" style="endArrow=none;html=1;rounded=0;exitX=0.888;exitY=0.74;exitDx=0;exitDy=0;exitPerimeter=0;entryX=0;entryY=0.5;entryDx=0;entryDy=0;" parent="1" source="u7ExXukWMiuUXVfVqPVW-31" target="u7ExXukWMiuUXVfVqPVW-19" edge="1">
          <mxGeometry width="50" height="50" relative="1" as="geometry">
            <mxPoint x="1015" y="958" as="sourcePoint" />
            <mxPoint x="1085" y="1094" as="targetPoint" />
          </mxGeometry>
        </mxCell>
        <mxCell id="u7ExXukWMiuUXVfVqPVW-31" value="NgayThanhToan" style="ellipse;whiteSpace=wrap;html=1;" parent="1" vertex="1">
          <mxGeometry x="820" y="970" width="115" height="40" as="geometry" />
        </mxCell>
        <mxCell id="u7ExXukWMiuUXVfVqPVW-32" value="" style="endArrow=none;html=1;rounded=0;exitX=0;exitY=0.5;exitDx=0;exitDy=0;entryX=1;entryY=0.5;entryDx=0;entryDy=0;" parent="1" source="u7ExXukWMiuUXVfVqPVW-33" target="u7ExXukWMiuUXVfVqPVW-19" edge="1">
          <mxGeometry width="50" height="50" relative="1" as="geometry">
            <mxPoint x="780" y="858" as="sourcePoint" />
            <mxPoint x="850" y="994" as="targetPoint" />
          </mxGeometry>
        </mxCell>
        <mxCell id="u7ExXukWMiuUXVfVqPVW-33" value="GiamGia" style="ellipse;whiteSpace=wrap;html=1;" parent="1" vertex="1">
          <mxGeometry x="1300" y="910" width="80" height="40" as="geometry" />
        </mxCell>
        <mxCell id="u7ExXukWMiuUXVfVqPVW-34" value="" style="endArrow=none;html=1;rounded=0;exitX=0;exitY=0.5;exitDx=0;exitDy=0;entryX=1;entryY=0.5;entryDx=0;entryDy=0;" parent="1" source="u7ExXukWMiuUXVfVqPVW-35" target="u7ExXukWMiuUXVfVqPVW-19" edge="1">
          <mxGeometry width="50" height="50" relative="1" as="geometry">
            <mxPoint x="760" y="784" as="sourcePoint" />
            <mxPoint x="1120" y="980" as="targetPoint" />
          </mxGeometry>
        </mxCell>
        <mxCell id="u7ExXukWMiuUXVfVqPVW-35" value="TienKhachDua" style="ellipse;whiteSpace=wrap;html=1;" parent="1" vertex="1">
          <mxGeometry x="1290" y="960" width="100" height="40" as="geometry" />
        </mxCell>
        <mxCell id="u7ExXukWMiuUXVfVqPVW-36" value="" style="endArrow=none;html=1;rounded=0;exitX=0;exitY=1;exitDx=0;exitDy=0;entryX=1;entryY=0.5;entryDx=0;entryDy=0;" parent="1" source="u7ExXukWMiuUXVfVqPVW-37" target="u7ExXukWMiuUXVfVqPVW-19" edge="1">
          <mxGeometry width="50" height="50" relative="1" as="geometry">
            <mxPoint x="1200" y="848" as="sourcePoint" />
            <mxPoint x="1270" y="984" as="targetPoint" />
          </mxGeometry>
        </mxCell>
        <mxCell id="u7ExXukWMiuUXVfVqPVW-37" value="TienThoiLai" style="ellipse;whiteSpace=wrap;html=1;" parent="1" vertex="1">
          <mxGeometry x="1230" y="820" width="80" height="40" as="geometry" />
        </mxCell>
        <mxCell id="u7ExXukWMiuUXVfVqPVW-38" value="(1,1)" style="text;html=1;align=center;verticalAlign=middle;resizable=0;points=[];autosize=1;strokeColor=none;fillColor=none;" parent="1" vertex="1">
          <mxGeometry x="1120" y="720" width="50" height="30" as="geometry" />
        </mxCell>
        <mxCell id="u7ExXukWMiuUXVfVqPVW-39" value="(1,1)" style="text;html=1;align=center;verticalAlign=middle;resizable=0;points=[];autosize=1;strokeColor=none;fillColor=none;" parent="1" vertex="1">
          <mxGeometry x="1120" y="890" width="50" height="30" as="geometry" />
        </mxCell>
        <mxCell id="XJj72I9EElcabzL9xgxT-1" value="n" style="text;html=1;align=center;verticalAlign=middle;resizable=0;points=[];autosize=1;strokeColor=none;fillColor=none;" parent="1" vertex="1">
          <mxGeometry x="1025" y="688" width="30" height="30" as="geometry" />
        </mxCell>
        <mxCell id="XJj72I9EElcabzL9xgxT-2" value="1" style="text;html=1;align=center;verticalAlign=middle;resizable=0;points=[];autosize=1;strokeColor=none;fillColor=none;" parent="1" vertex="1">
          <mxGeometry x="830" y="690" width="30" height="30" as="geometry" />
        </mxCell>
        <mxCell id="XJj72I9EElcabzL9xgxT-3" value="n" style="text;html=1;align=center;verticalAlign=middle;resizable=0;points=[];autosize=1;strokeColor=none;fillColor=none;" parent="1" vertex="1">
          <mxGeometry x="1525" y="798" width="30" height="30" as="geometry" />
        </mxCell>
        <mxCell id="XJj72I9EElcabzL9xgxT-4" value="1" style="text;html=1;align=center;verticalAlign=middle;resizable=0;points=[];autosize=1;strokeColor=none;fillColor=none;" parent="1" vertex="1">
          <mxGeometry x="1175" y="658" width="30" height="30" as="geometry" />
        </mxCell>
        <mxCell id="XJj72I9EElcabzL9xgxT-5" value="1" style="text;html=1;align=center;verticalAlign=middle;resizable=0;points=[];autosize=1;strokeColor=none;fillColor=none;" parent="1" vertex="1">
          <mxGeometry x="1095" y="868" width="30" height="30" as="geometry" />
        </mxCell>
        <mxCell id="XJj72I9EElcabzL9xgxT-6" value="1" style="text;html=1;align=center;verticalAlign=middle;resizable=0;points=[];autosize=1;strokeColor=none;fillColor=none;" parent="1" vertex="1">
          <mxGeometry x="1085" y="718" width="30" height="30" as="geometry" />
        </mxCell>
        <mxCell id="XJj72I9EElcabzL9xgxT-7" value="1" style="text;html=1;align=center;verticalAlign=middle;resizable=0;points=[];autosize=1;strokeColor=none;fillColor=none;" parent="1" vertex="1">
          <mxGeometry x="1475" y="918" width="30" height="30" as="geometry" />
        </mxCell>
        <mxCell id="XJj72I9EElcabzL9xgxT-8" value="1" style="text;html=1;align=center;verticalAlign=middle;resizable=0;points=[];autosize=1;strokeColor=none;fillColor=none;" parent="1" vertex="1">
          <mxGeometry x="1485" y="1088" width="30" height="30" as="geometry" />
        </mxCell>
        <mxCell id="XJj72I9EElcabzL9xgxT-9" value="n" style="text;html=1;align=center;verticalAlign=middle;resizable=0;points=[];autosize=1;strokeColor=none;fillColor=none;" parent="1" vertex="1">
          <mxGeometry x="1605" y="1168" width="30" height="30" as="geometry" />
        </mxCell>
        <mxCell id="XJj72I9EElcabzL9xgxT-10" value="n" style="text;html=1;align=center;verticalAlign=middle;resizable=0;points=[];autosize=1;strokeColor=none;fillColor=none;" parent="1" vertex="1">
          <mxGeometry x="1825" y="1168" width="30" height="30" as="geometry" />
        </mxCell>
        <mxCell id="XJj72I9EElcabzL9xgxT-11" value="n" style="text;html=1;align=center;verticalAlign=middle;resizable=0;points=[];autosize=1;strokeColor=none;fillColor=none;" parent="1" vertex="1">
          <mxGeometry x="1555" y="1204" width="30" height="30" as="geometry" />
        </mxCell>
        <mxCell id="XJj72I9EElcabzL9xgxT-13" value="1" style="text;html=1;align=center;verticalAlign=middle;resizable=0;points=[];autosize=1;strokeColor=none;fillColor=none;" parent="1" vertex="1">
          <mxGeometry x="1495" y="1410" width="30" height="30" as="geometry" />
        </mxCell>
        <mxCell id="_iiNwPgH_TM1tSRiTnPf-1" value="MaDanhMuc" style="ellipse;whiteSpace=wrap;html=1;" vertex="1" parent="1">
          <mxGeometry x="1330" y="1260" width="70" height="40" as="geometry" />
        </mxCell>
        <mxCell id="06Lu-Bdi6c74kfGhvTMY-1" value="Mon_ThucDon" style="rounded=0;whiteSpace=wrap;html=1;" vertex="1" parent="1">
          <mxGeometry x="1660" y="1274" width="120" height="60" as="geometry" />
        </mxCell>
        <mxCell id="06Lu-Bdi6c74kfGhvTMY-2" value="" style="endArrow=none;html=1;rounded=0;entryX=1;entryY=0.5;entryDx=0;entryDy=0;exitX=0;exitY=0.5;exitDx=0;exitDy=0;" edge="1" parent="1" source="06Lu-Bdi6c74kfGhvTMY-3" target="06Lu-Bdi6c74kfGhvTMY-1">
          <mxGeometry width="50" height="50" relative="1" as="geometry">
            <mxPoint x="1910" y="1340" as="sourcePoint" />
            <mxPoint x="1850" y="1380" as="targetPoint" />
          </mxGeometry>
        </mxCell>
        <mxCell id="06Lu-Bdi6c74kfGhvTMY-3" value="&lt;u&gt;MaThucDon&lt;/u&gt;" style="ellipse;whiteSpace=wrap;html=1;" vertex="1" parent="1">
          <mxGeometry x="1930" y="1250" width="80" height="40" as="geometry" />
        </mxCell>
        <mxCell id="06Lu-Bdi6c74kfGhvTMY-4" value="" style="endArrow=none;html=1;rounded=0;entryX=1;entryY=0.5;entryDx=0;entryDy=0;exitX=0;exitY=0.5;exitDx=0;exitDy=0;" edge="1" parent="1" source="06Lu-Bdi6c74kfGhvTMY-5" target="06Lu-Bdi6c74kfGhvTMY-1">
          <mxGeometry width="50" height="50" relative="1" as="geometry">
            <mxPoint x="1920" y="1420" as="sourcePoint" />
            <mxPoint x="1840" y="1390" as="targetPoint" />
          </mxGeometry>
        </mxCell>
        <mxCell id="06Lu-Bdi6c74kfGhvTMY-5" value="&lt;u&gt;MaMon&lt;/u&gt;" style="ellipse;whiteSpace=wrap;html=1;" vertex="1" parent="1">
          <mxGeometry x="1940" y="1330" width="80" height="40" as="geometry" />
        </mxCell>
        <mxCell id="06Lu-Bdi6c74kfGhvTMY-7" value="" style="endArrow=none;html=1;rounded=0;entryX=0.5;entryY=1;entryDx=0;entryDy=0;exitX=0.5;exitY=0;exitDx=0;exitDy=0;" edge="1" parent="1" source="06Lu-Bdi6c74kfGhvTMY-1" target="YPx_fVKoxpwIJUbFyd35-9">
          <mxGeometry width="50" height="50" relative="1" as="geometry">
            <mxPoint x="1810" y="1270" as="sourcePoint" />
            <mxPoint x="1860" y="1220" as="targetPoint" />
          </mxGeometry>
        </mxCell>
      </root>
    </mxGraphModel>
  </diagram>
  <diagram id="GmjksuIczC4Ns6C5qvy2" name="ERM - Mô hình thực thể liên kết (entity relationship diagram)">
    <mxGraphModel dx="1674" dy="814" grid="1" gridSize="10" guides="1" tooltips="1" connect="1" arrows="1" fold="1" page="1" pageScale="1" pageWidth="2339" pageHeight="3300" math="0" shadow="0">
      <root>
        <mxCell id="0" />
        <mxCell id="1" parent="0" />
        <mxCell id="cJFdk1yozbm-KCTub-jC-1" value="Bàn" style="rounded=0;whiteSpace=wrap;html=1;" parent="1" vertex="1">
          <mxGeometry x="460" y="700" width="120" height="60" as="geometry" />
        </mxCell>
        <mxCell id="cJFdk1yozbm-KCTub-jC-2" value="HoaDon" style="rounded=0;whiteSpace=wrap;html=1;" parent="1" vertex="1">
          <mxGeometry x="830" y="700" width="120" height="60" as="geometry" />
        </mxCell>
        <mxCell id="cJFdk1yozbm-KCTub-jC-3" value="ChiTietHoaDon" style="rounded=0;whiteSpace=wrap;html=1;" parent="1" vertex="1">
          <mxGeometry x="1230" y="880" width="120" height="60" as="geometry" />
        </mxCell>
        <mxCell id="cJFdk1yozbm-KCTub-jC-4" value="Mon" style="rounded=0;whiteSpace=wrap;html=1;" parent="1" vertex="1">
          <mxGeometry x="1230" y="1174" width="120" height="60" as="geometry" />
        </mxCell>
        <mxCell id="cJFdk1yozbm-KCTub-jC-5" value="DanhMucMon" style="rounded=0;whiteSpace=wrap;html=1;" parent="1" vertex="1">
          <mxGeometry x="1150" y="1390" width="120" height="60" as="geometry" />
        </mxCell>
        <mxCell id="cJFdk1yozbm-KCTub-jC-6" value="Có" style="rhombus;whiteSpace=wrap;html=1;" parent="1" vertex="1">
          <mxGeometry x="680" y="710" width="60" height="40" as="geometry" />
        </mxCell>
        <mxCell id="cJFdk1yozbm-KCTub-jC-7" value="Gồm" style="rhombus;whiteSpace=wrap;html=1;" parent="1" vertex="1">
          <mxGeometry x="1260" y="780" width="60" height="40" as="geometry" />
        </mxCell>
        <mxCell id="cJFdk1yozbm-KCTub-jC-8" value="Chứa" style="rhombus;whiteSpace=wrap;html=1;" parent="1" vertex="1">
          <mxGeometry x="1260" y="1050" width="60" height="40" as="geometry" />
        </mxCell>
        <mxCell id="cJFdk1yozbm-KCTub-jC-9" value="Thuộc" style="rhombus;whiteSpace=wrap;html=1;" parent="1" vertex="1">
          <mxGeometry x="1460" y="1184" width="60" height="40" as="geometry" />
        </mxCell>
        <mxCell id="cJFdk1yozbm-KCTub-jC-10" value="" style="endArrow=none;html=1;rounded=0;entryX=0;entryY=0.5;entryDx=0;entryDy=0;exitX=1;exitY=0.5;exitDx=0;exitDy=0;" parent="1" source="cJFdk1yozbm-KCTub-jC-1" target="cJFdk1yozbm-KCTub-jC-6" edge="1">
          <mxGeometry width="50" height="50" relative="1" as="geometry">
            <mxPoint x="520" y="680" as="sourcePoint" />
            <mxPoint x="520" y="640" as="targetPoint" />
          </mxGeometry>
        </mxCell>
        <mxCell id="cJFdk1yozbm-KCTub-jC-11" value="" style="endArrow=none;html=1;rounded=0;exitX=1;exitY=0.5;exitDx=0;exitDy=0;entryX=0;entryY=0.5;entryDx=0;entryDy=0;" parent="1" source="cJFdk1yozbm-KCTub-jC-6" target="cJFdk1yozbm-KCTub-jC-2" edge="1">
          <mxGeometry width="50" height="50" relative="1" as="geometry">
            <mxPoint x="750" y="750" as="sourcePoint" />
            <mxPoint x="800" y="700" as="targetPoint" />
            <Array as="points" />
          </mxGeometry>
        </mxCell>
        <mxCell id="cJFdk1yozbm-KCTub-jC-12" value="" style="endArrow=none;html=1;rounded=0;exitX=1;exitY=0.5;exitDx=0;exitDy=0;entryX=0.5;entryY=0;entryDx=0;entryDy=0;" parent="1" source="cJFdk1yozbm-KCTub-jC-2" target="cJFdk1yozbm-KCTub-jC-7" edge="1">
          <mxGeometry width="50" height="50" relative="1" as="geometry">
            <mxPoint x="1030" y="780" as="sourcePoint" />
            <mxPoint x="1200" y="730" as="targetPoint" />
            <Array as="points">
              <mxPoint x="1290" y="730" />
            </Array>
          </mxGeometry>
        </mxCell>
        <mxCell id="cJFdk1yozbm-KCTub-jC-13" value="" style="endArrow=none;html=1;rounded=0;entryX=0.5;entryY=1;entryDx=0;entryDy=0;exitX=0.5;exitY=0;exitDx=0;exitDy=0;" parent="1" source="cJFdk1yozbm-KCTub-jC-3" target="cJFdk1yozbm-KCTub-jC-7" edge="1">
          <mxGeometry width="50" height="50" relative="1" as="geometry">
            <mxPoint x="1330" y="880" as="sourcePoint" />
            <mxPoint x="1330" y="820" as="targetPoint" />
          </mxGeometry>
        </mxCell>
        <mxCell id="cJFdk1yozbm-KCTub-jC-14" value="" style="endArrow=none;html=1;rounded=0;entryX=0.5;entryY=1;entryDx=0;entryDy=0;exitX=0.5;exitY=0;exitDx=0;exitDy=0;" parent="1" source="cJFdk1yozbm-KCTub-jC-8" target="cJFdk1yozbm-KCTub-jC-3" edge="1">
          <mxGeometry width="50" height="50" relative="1" as="geometry">
            <mxPoint x="1350" y="1020" as="sourcePoint" />
            <mxPoint x="1400" y="970" as="targetPoint" />
          </mxGeometry>
        </mxCell>
        <mxCell id="cJFdk1yozbm-KCTub-jC-15" value="" style="endArrow=none;html=1;rounded=0;entryX=0.5;entryY=1;entryDx=0;entryDy=0;exitX=0.5;exitY=0;exitDx=0;exitDy=0;" parent="1" source="cJFdk1yozbm-KCTub-jC-4" target="cJFdk1yozbm-KCTub-jC-8" edge="1">
          <mxGeometry width="50" height="50" relative="1" as="geometry">
            <mxPoint x="1100" y="1154" as="sourcePoint" />
            <mxPoint x="1130" y="1106" as="targetPoint" />
          </mxGeometry>
        </mxCell>
        <mxCell id="cJFdk1yozbm-KCTub-jC-16" value="" style="endArrow=none;html=1;rounded=0;exitX=1;exitY=0.5;exitDx=0;exitDy=0;entryX=0;entryY=0.5;entryDx=0;entryDy=0;" parent="1" source="cJFdk1yozbm-KCTub-jC-4" target="cJFdk1yozbm-KCTub-jC-9" edge="1">
          <mxGeometry width="50" height="50" relative="1" as="geometry">
            <mxPoint x="1320" y="1194" as="sourcePoint" />
            <mxPoint x="1370" y="1144" as="targetPoint" />
          </mxGeometry>
        </mxCell>
        <mxCell id="cJFdk1yozbm-KCTub-jC-17" value="" style="endArrow=none;html=1;rounded=0;exitX=1;exitY=0.5;exitDx=0;exitDy=0;entryX=0;entryY=0.5;entryDx=0;entryDy=0;" parent="1" source="cJFdk1yozbm-KCTub-jC-9" target="cJFdk1yozbm-KCTub-jC-63" edge="1">
          <mxGeometry width="50" height="50" relative="1" as="geometry">
            <mxPoint x="1520" y="1203.5" as="sourcePoint" />
            <mxPoint x="1640" y="1204" as="targetPoint" />
          </mxGeometry>
        </mxCell>
        <mxCell id="cJFdk1yozbm-KCTub-jC-18" value="" style="endArrow=none;html=1;rounded=0;entryX=0.5;entryY=1;entryDx=0;entryDy=0;exitX=1;exitY=0.5;exitDx=0;exitDy=0;" parent="1" source="jrMM2hak_1y1M8E7cDnT-1" target="cJFdk1yozbm-KCTub-jC-1" edge="1">
          <mxGeometry width="50" height="50" relative="1" as="geometry">
            <mxPoint x="410" y="806" as="sourcePoint" />
            <mxPoint x="430" y="660" as="targetPoint" />
          </mxGeometry>
        </mxCell>
        <mxCell id="cJFdk1yozbm-KCTub-jC-19" value="" style="endArrow=none;html=1;rounded=0;entryX=0.5;entryY=1;entryDx=0;entryDy=0;exitX=0.5;exitY=0;exitDx=0;exitDy=0;" parent="1" source="cJFdk1yozbm-KCTub-jC-20" target="cJFdk1yozbm-KCTub-jC-1" edge="1">
          <mxGeometry width="50" height="50" relative="1" as="geometry">
            <mxPoint x="380" y="710" as="sourcePoint" />
            <mxPoint x="460" y="750" as="targetPoint" />
          </mxGeometry>
        </mxCell>
        <mxCell id="cJFdk1yozbm-KCTub-jC-20" value="TenBan" style="ellipse;whiteSpace=wrap;html=1;" parent="1" vertex="1">
          <mxGeometry x="410" y="830" width="70" height="40" as="geometry" />
        </mxCell>
        <mxCell id="cJFdk1yozbm-KCTub-jC-21" value="" style="endArrow=none;html=1;rounded=0;entryX=0.5;entryY=1;entryDx=0;entryDy=0;exitX=0.5;exitY=0;exitDx=0;exitDy=0;" parent="1" source="cJFdk1yozbm-KCTub-jC-22" target="cJFdk1yozbm-KCTub-jC-1" edge="1">
          <mxGeometry width="50" height="50" relative="1" as="geometry">
            <mxPoint x="369.748737341529" y="755.8578643762694" as="sourcePoint" />
            <mxPoint x="510" y="720" as="targetPoint" />
          </mxGeometry>
        </mxCell>
        <mxCell id="cJFdk1yozbm-KCTub-jC-22" value="TrangThai" style="ellipse;whiteSpace=wrap;html=1;" parent="1" vertex="1">
          <mxGeometry x="485" y="840" width="70" height="40" as="geometry" />
        </mxCell>
        <mxCell id="cJFdk1yozbm-KCTub-jC-23" value="" style="endArrow=none;html=1;rounded=0;exitX=0.888;exitY=0.74;exitDx=0;exitDy=0;exitPerimeter=0;entryX=0.5;entryY=0;entryDx=0;entryDy=0;" parent="1" source="cJFdk1yozbm-KCTub-jC-24" target="cJFdk1yozbm-KCTub-jC-2" edge="1">
          <mxGeometry width="50" height="50" relative="1" as="geometry">
            <mxPoint x="805" y="380" as="sourcePoint" />
            <mxPoint x="905" y="480" as="targetPoint" />
          </mxGeometry>
        </mxCell>
        <mxCell id="cJFdk1yozbm-KCTub-jC-24" value="MaBan" style="ellipse;whiteSpace=wrap;html=1;" parent="1" vertex="1">
          <mxGeometry x="740" y="640" width="70" height="40" as="geometry" />
        </mxCell>
        <mxCell id="cJFdk1yozbm-KCTub-jC-25" value="" style="endArrow=none;html=1;rounded=0;exitX=0.888;exitY=0.74;exitDx=0;exitDy=0;exitPerimeter=0;entryX=0.5;entryY=0;entryDx=0;entryDy=0;" parent="1" source="cJFdk1yozbm-KCTub-jC-26" target="cJFdk1yozbm-KCTub-jC-2" edge="1">
          <mxGeometry width="50" height="50" relative="1" as="geometry">
            <mxPoint x="865" y="350" as="sourcePoint" />
            <mxPoint x="905" y="480" as="targetPoint" />
          </mxGeometry>
        </mxCell>
        <mxCell id="cJFdk1yozbm-KCTub-jC-26" value="&lt;u&gt;MaHoaDon&lt;/u&gt;" style="ellipse;whiteSpace=wrap;html=1;fillColor=#FFFF21;fontColor=#000000;strokeColor=#B09500;fontStyle=1" parent="1" vertex="1">
          <mxGeometry x="760" y="590" width="70" height="40" as="geometry" />
        </mxCell>
        <mxCell id="cJFdk1yozbm-KCTub-jC-27" value="" style="endArrow=none;html=1;rounded=0;exitX=0.5;exitY=1;exitDx=0;exitDy=0;entryX=0.5;entryY=0;entryDx=0;entryDy=0;" parent="1" source="cJFdk1yozbm-KCTub-jC-28" target="cJFdk1yozbm-KCTub-jC-2" edge="1">
          <mxGeometry width="50" height="50" relative="1" as="geometry">
            <mxPoint x="955" y="330" as="sourcePoint" />
            <mxPoint x="905" y="480" as="targetPoint" />
          </mxGeometry>
        </mxCell>
        <mxCell id="cJFdk1yozbm-KCTub-jC-28" value="TrangThai" style="ellipse;whiteSpace=wrap;html=1;dashed=1;strokeWidth=2;" parent="1" vertex="1">
          <mxGeometry x="850" y="600" width="70" height="40" as="geometry" />
        </mxCell>
        <mxCell id="cJFdk1yozbm-KCTub-jC-29" value="" style="endArrow=none;html=1;rounded=0;entryX=0.5;entryY=0;entryDx=0;entryDy=0;exitX=0.5;exitY=0;exitDx=0;exitDy=0;" parent="1" source="cJFdk1yozbm-KCTub-jC-30" target="cJFdk1yozbm-KCTub-jC-2" edge="1">
          <mxGeometry width="50" height="50" relative="1" as="geometry">
            <mxPoint x="1135" y="320" as="sourcePoint" />
            <mxPoint x="905" y="480" as="targetPoint" />
          </mxGeometry>
        </mxCell>
        <mxCell id="cJFdk1yozbm-KCTub-jC-30" value="NgayLap" style="ellipse;whiteSpace=wrap;html=1;" parent="1" vertex="1">
          <mxGeometry x="980" y="650" width="70" height="40" as="geometry" />
        </mxCell>
        <mxCell id="cJFdk1yozbm-KCTub-jC-31" value="" style="endArrow=none;html=1;rounded=0;entryX=0.5;entryY=0;entryDx=0;entryDy=0;exitX=0;exitY=1;exitDx=0;exitDy=0;" parent="1" source="cJFdk1yozbm-KCTub-jC-32" target="cJFdk1yozbm-KCTub-jC-2" edge="1">
          <mxGeometry width="50" height="50" relative="1" as="geometry">
            <mxPoint x="1155" y="380" as="sourcePoint" />
            <mxPoint x="905" y="480" as="targetPoint" />
          </mxGeometry>
        </mxCell>
        <mxCell id="cJFdk1yozbm-KCTub-jC-32" value="NgayTra" style="ellipse;whiteSpace=wrap;html=1;" parent="1" vertex="1">
          <mxGeometry x="930" y="610" width="70" height="40" as="geometry" />
        </mxCell>
        <mxCell id="cJFdk1yozbm-KCTub-jC-33" value="" style="endArrow=none;html=1;rounded=0;entryX=1;entryY=0.5;entryDx=0;entryDy=0;exitX=0;exitY=1;exitDx=0;exitDy=0;" parent="1" source="cJFdk1yozbm-KCTub-jC-34" target="cJFdk1yozbm-KCTub-jC-3" edge="1">
          <mxGeometry width="50" height="50" relative="1" as="geometry">
            <mxPoint x="1660" y="880" as="sourcePoint" />
            <mxPoint x="1350" y="890" as="targetPoint" />
          </mxGeometry>
        </mxCell>
        <mxCell id="cJFdk1yozbm-KCTub-jC-34" value="MaHoaDon" style="ellipse;whiteSpace=wrap;html=1;" parent="1" vertex="1">
          <mxGeometry x="1500" y="830" width="70" height="40" as="geometry" />
        </mxCell>
        <mxCell id="cJFdk1yozbm-KCTub-jC-35" value="" style="endArrow=none;html=1;rounded=0;exitX=0;exitY=0.5;exitDx=0;exitDy=0;" parent="1" source="cJFdk1yozbm-KCTub-jC-36" edge="1">
          <mxGeometry width="50" height="50" relative="1" as="geometry">
            <mxPoint x="1550" y="950" as="sourcePoint" />
            <mxPoint x="1350" y="910" as="targetPoint" />
          </mxGeometry>
        </mxCell>
        <mxCell id="cJFdk1yozbm-KCTub-jC-36" value="SoLuong" style="ellipse;whiteSpace=wrap;html=1;" parent="1" vertex="1">
          <mxGeometry x="1530" y="930" width="70" height="30" as="geometry" />
        </mxCell>
        <mxCell id="cJFdk1yozbm-KCTub-jC-37" value="" style="endArrow=none;html=1;rounded=0;entryX=1;entryY=0.5;entryDx=0;entryDy=0;exitX=0;exitY=0.5;exitDx=0;exitDy=0;" parent="1" source="cJFdk1yozbm-KCTub-jC-38" target="cJFdk1yozbm-KCTub-jC-3" edge="1">
          <mxGeometry width="50" height="50" relative="1" as="geometry">
            <mxPoint x="1780" y="890" as="sourcePoint" />
            <mxPoint x="1470" y="900" as="targetPoint" />
          </mxGeometry>
        </mxCell>
        <mxCell id="cJFdk1yozbm-KCTub-jC-38" value="MaMon" style="ellipse;whiteSpace=wrap;html=1;" parent="1" vertex="1">
          <mxGeometry x="1520" y="880" width="70" height="40" as="geometry" />
        </mxCell>
        <mxCell id="cJFdk1yozbm-KCTub-jC-39" value="" style="endArrow=none;html=1;rounded=0;exitX=0;exitY=0;exitDx=0;exitDy=0;entryX=1;entryY=0.5;entryDx=0;entryDy=0;" parent="1" source="cJFdk1yozbm-KCTub-jC-40" target="cJFdk1yozbm-KCTub-jC-3" edge="1">
          <mxGeometry width="50" height="50" relative="1" as="geometry">
            <mxPoint x="1690" y="910" as="sourcePoint" />
            <mxPoint x="1380" y="920" as="targetPoint" />
          </mxGeometry>
        </mxCell>
        <mxCell id="cJFdk1yozbm-KCTub-jC-40" value="ThanhTien" style="ellipse;whiteSpace=wrap;html=1;dashed=1;strokeWidth=2;" parent="1" vertex="1">
          <mxGeometry x="1490" y="960" width="70" height="40" as="geometry" />
        </mxCell>
        <mxCell id="cJFdk1yozbm-KCTub-jC-41" value="" style="endArrow=none;html=1;rounded=0;exitX=0;exitY=1;exitDx=0;exitDy=0;" parent="1" source="cJFdk1yozbm-KCTub-jC-42" edge="1">
          <mxGeometry width="50" height="50" relative="1" as="geometry">
            <mxPoint x="1620" y="820" as="sourcePoint" />
            <mxPoint x="1350" y="910" as="targetPoint" />
          </mxGeometry>
        </mxCell>
        <mxCell id="cJFdk1yozbm-KCTub-jC-42" value="&lt;u&gt;MaChiTietHD&lt;/u&gt;" style="ellipse;whiteSpace=wrap;html=1;fillColor=#FFFF21;fontColor=#000000;strokeColor=#B09500;fontStyle=1" parent="1" vertex="1">
          <mxGeometry x="1410" y="800" width="90" height="40" as="geometry" />
        </mxCell>
        <mxCell id="cJFdk1yozbm-KCTub-jC-43" value="" style="endArrow=none;html=1;rounded=0;entryX=0;entryY=0.5;entryDx=0;entryDy=0;exitX=1;exitY=0.5;exitDx=0;exitDy=0;" parent="1" source="cJFdk1yozbm-KCTub-jC-44" target="cJFdk1yozbm-KCTub-jC-4" edge="1">
          <mxGeometry width="50" height="50" relative="1" as="geometry">
            <mxPoint x="1119.6551703363798" y="1158.1954011027638" as="sourcePoint" />
            <mxPoint x="920" y="1154" as="targetPoint" />
          </mxGeometry>
        </mxCell>
        <mxCell id="cJFdk1yozbm-KCTub-jC-44" value="&lt;u&gt;MaMon&lt;/u&gt;" style="ellipse;whiteSpace=wrap;html=1;fillColor=#FFFF21;fontColor=#000000;strokeColor=#B09500;fontStyle=1" parent="1" vertex="1">
          <mxGeometry x="1040" y="1134" width="70" height="40" as="geometry" />
        </mxCell>
        <mxCell id="cJFdk1yozbm-KCTub-jC-45" value="" style="endArrow=none;html=1;rounded=0;exitX=1;exitY=0.5;exitDx=0;exitDy=0;" parent="1" source="cJFdk1yozbm-KCTub-jC-46" edge="1">
          <mxGeometry width="50" height="50" relative="1" as="geometry">
            <mxPoint x="1285" y="1184" as="sourcePoint" />
            <mxPoint x="1230" y="1204" as="targetPoint" />
          </mxGeometry>
        </mxCell>
        <mxCell id="cJFdk1yozbm-KCTub-jC-46" value="MaThucDon" style="ellipse;whiteSpace=wrap;html=1;" parent="1" vertex="1">
          <mxGeometry x="1010" y="1184" width="70" height="40" as="geometry" />
        </mxCell>
        <mxCell id="cJFdk1yozbm-KCTub-jC-47" value="" style="endArrow=none;html=1;rounded=0;exitX=1;exitY=0.5;exitDx=0;exitDy=0;" parent="1" source="cJFdk1yozbm-KCTub-jC-48" edge="1">
          <mxGeometry width="50" height="50" relative="1" as="geometry">
            <mxPoint x="1280" y="1284" as="sourcePoint" />
            <mxPoint x="1230" y="1204" as="targetPoint" />
          </mxGeometry>
        </mxCell>
        <mxCell id="cJFdk1yozbm-KCTub-jC-48" value="TenMon" style="ellipse;whiteSpace=wrap;html=1;" parent="1" vertex="1">
          <mxGeometry x="1000" y="1234" width="70" height="40" as="geometry" />
        </mxCell>
        <mxCell id="cJFdk1yozbm-KCTub-jC-49" value="" style="endArrow=none;html=1;rounded=0;exitX=0.5;exitY=0;exitDx=0;exitDy=0;" parent="1" source="cJFdk1yozbm-KCTub-jC-50" edge="1">
          <mxGeometry width="50" height="50" relative="1" as="geometry">
            <mxPoint x="1425" y="1304" as="sourcePoint" />
            <mxPoint x="1230" y="1204" as="targetPoint" />
          </mxGeometry>
        </mxCell>
        <mxCell id="cJFdk1yozbm-KCTub-jC-50" value="Gia" style="ellipse;whiteSpace=wrap;html=1;" parent="1" vertex="1">
          <mxGeometry x="1060" y="1274" width="70" height="40" as="geometry" />
        </mxCell>
        <mxCell id="cJFdk1yozbm-KCTub-jC-51" value="" style="endArrow=none;html=1;rounded=0;exitX=1;exitY=0.5;exitDx=0;exitDy=0;entryX=0;entryY=0.5;entryDx=0;entryDy=0;" parent="1" source="cJFdk1yozbm-KCTub-jC-52" target="cJFdk1yozbm-KCTub-jC-5" edge="1">
          <mxGeometry width="50" height="50" relative="1" as="geometry">
            <mxPoint x="983.1801948466054" y="1405.8578643762694" as="sourcePoint" />
            <mxPoint x="1270" y="1415" as="targetPoint" />
          </mxGeometry>
        </mxCell>
        <mxCell id="cJFdk1yozbm-KCTub-jC-52" value="TenDanhMuc" style="ellipse;whiteSpace=wrap;html=1;" parent="1" vertex="1">
          <mxGeometry x="970" y="1420" width="90" height="40" as="geometry" />
        </mxCell>
        <mxCell id="cJFdk1yozbm-KCTub-jC-53" value="" style="endArrow=none;html=1;rounded=0;exitX=1;exitY=0.5;exitDx=0;exitDy=0;entryX=0;entryY=0.5;entryDx=0;entryDy=0;" parent="1" source="cJFdk1yozbm-KCTub-jC-54" target="cJFdk1yozbm-KCTub-jC-5" edge="1">
          <mxGeometry width="50" height="50" relative="1" as="geometry">
            <mxPoint x="1650.96" y="1316" as="sourcePoint" />
            <mxPoint x="1200" y="1360" as="targetPoint" />
          </mxGeometry>
        </mxCell>
        <mxCell id="cJFdk1yozbm-KCTub-jC-54" value="&lt;u&gt;MaDanhMuc&lt;/u&gt;" style="ellipse;whiteSpace=wrap;html=1;fillColor=#FFFF21;fontColor=#000000;strokeColor=#B09500;fontStyle=1" parent="1" vertex="1">
          <mxGeometry x="970" y="1360" width="90" height="40" as="geometry" />
        </mxCell>
        <mxCell id="cJFdk1yozbm-KCTub-jC-55" value="(1,1)" style="text;html=1;align=center;verticalAlign=middle;resizable=0;points=[];autosize=1;strokeColor=none;fillColor=none;" parent="1" vertex="1">
          <mxGeometry x="780" y="730" width="50" height="30" as="geometry" />
        </mxCell>
        <mxCell id="cJFdk1yozbm-KCTub-jC-56" value="(1,1)" style="text;html=1;align=center;verticalAlign=middle;resizable=0;points=[];autosize=1;strokeColor=none;fillColor=none;" parent="1" vertex="1">
          <mxGeometry x="580" y="730" width="50" height="30" as="geometry" />
        </mxCell>
        <mxCell id="cJFdk1yozbm-KCTub-jC-57" value="(1,1)" style="text;html=1;align=center;verticalAlign=middle;resizable=0;points=[];autosize=1;strokeColor=none;fillColor=none;" parent="1" vertex="1">
          <mxGeometry x="950" y="730" width="50" height="30" as="geometry" />
        </mxCell>
        <mxCell id="cJFdk1yozbm-KCTub-jC-58" value="(1,n)" style="text;html=1;align=center;verticalAlign=middle;resizable=0;points=[];autosize=1;strokeColor=none;fillColor=none;" parent="1" vertex="1">
          <mxGeometry x="1240" y="850" width="50" height="30" as="geometry" />
        </mxCell>
        <mxCell id="cJFdk1yozbm-KCTub-jC-59" value="(1,n)" style="text;html=1;align=center;verticalAlign=middle;resizable=0;points=[];autosize=1;strokeColor=none;fillColor=none;" parent="1" vertex="1">
          <mxGeometry x="1290" y="940" width="50" height="30" as="geometry" />
        </mxCell>
        <mxCell id="cJFdk1yozbm-KCTub-jC-60" value="(0,n)" style="text;html=1;align=center;verticalAlign=middle;resizable=0;points=[];autosize=1;strokeColor=none;fillColor=none;" parent="1" vertex="1">
          <mxGeometry x="1290" y="1144" width="50" height="30" as="geometry" />
        </mxCell>
        <mxCell id="cJFdk1yozbm-KCTub-jC-61" value="(0,n)" style="text;html=1;align=center;verticalAlign=middle;resizable=0;points=[];autosize=1;strokeColor=none;fillColor=none;" parent="1" vertex="1">
          <mxGeometry x="1350" y="1174" width="50" height="30" as="geometry" />
        </mxCell>
        <mxCell id="cJFdk1yozbm-KCTub-jC-62" value="(1,n)" style="text;html=1;align=center;verticalAlign=middle;resizable=0;points=[];autosize=1;strokeColor=none;fillColor=none;" parent="1" vertex="1">
          <mxGeometry x="1590" y="1174" width="50" height="30" as="geometry" />
        </mxCell>
        <mxCell id="cJFdk1yozbm-KCTub-jC-63" value="ThucDon" style="rounded=0;whiteSpace=wrap;html=1;" parent="1" vertex="1">
          <mxGeometry x="1640" y="1174" width="120" height="60" as="geometry" />
        </mxCell>
        <mxCell id="cJFdk1yozbm-KCTub-jC-64" value="" style="endArrow=none;html=1;rounded=0;entryX=0.5;entryY=0;entryDx=0;entryDy=0;exitX=0;exitY=0.5;exitDx=0;exitDy=0;" parent="1" source="cJFdk1yozbm-KCTub-jC-67" target="cJFdk1yozbm-KCTub-jC-63" edge="1">
          <mxGeometry width="50" height="50" relative="1" as="geometry">
            <mxPoint x="1670" y="1114" as="sourcePoint" />
            <mxPoint x="1220" y="1034" as="targetPoint" />
          </mxGeometry>
        </mxCell>
        <mxCell id="cJFdk1yozbm-KCTub-jC-67" value="&lt;u&gt;MaThucDon&lt;/u&gt;" style="ellipse;whiteSpace=wrap;html=1;fillColor=#FFFF21;fontColor=#000000;strokeColor=#B09500;fontStyle=1" parent="1" vertex="1">
          <mxGeometry x="1760" y="1080" width="80" height="40" as="geometry" />
        </mxCell>
        <mxCell id="cJFdk1yozbm-KCTub-jC-68" value="" style="endArrow=none;html=1;rounded=0;exitX=0.5;exitY=1;exitDx=0;exitDy=0;entryX=0.5;entryY=0;entryDx=0;entryDy=0;" parent="1" source="cJFdk1yozbm-KCTub-jC-69" target="cJFdk1yozbm-KCTub-jC-63" edge="1">
          <mxGeometry width="50" height="50" relative="1" as="geometry">
            <mxPoint x="1515" y="1094" as="sourcePoint" />
            <mxPoint x="1700" y="1170" as="targetPoint" />
          </mxGeometry>
        </mxCell>
        <mxCell id="cJFdk1yozbm-KCTub-jC-69" value="SoLuong" style="ellipse;whiteSpace=wrap;html=1;" parent="1" vertex="1">
          <mxGeometry x="1660" y="1060" width="70" height="40" as="geometry" />
        </mxCell>
        <mxCell id="cJFdk1yozbm-KCTub-jC-70" value="" style="endArrow=none;html=1;rounded=0;exitX=0;exitY=0.5;exitDx=0;exitDy=0;entryX=0.5;entryY=0;entryDx=0;entryDy=0;" parent="1" source="cJFdk1yozbm-KCTub-jC-71" target="cJFdk1yozbm-KCTub-jC-63" edge="1">
          <mxGeometry width="50" height="50" relative="1" as="geometry">
            <mxPoint x="1875" y="1194" as="sourcePoint" />
            <mxPoint x="1680" y="1094" as="targetPoint" />
          </mxGeometry>
        </mxCell>
        <mxCell id="cJFdk1yozbm-KCTub-jC-71" value="Ngay" style="ellipse;whiteSpace=wrap;html=1;" parent="1" vertex="1">
          <mxGeometry x="1820" y="1134" width="70" height="40" as="geometry" />
        </mxCell>
        <mxCell id="cJFdk1yozbm-KCTub-jC-72" value="Thuộc" style="rhombus;whiteSpace=wrap;html=1;" parent="1" vertex="1">
          <mxGeometry x="1290" y="1330" width="60" height="40" as="geometry" />
        </mxCell>
        <mxCell id="cJFdk1yozbm-KCTub-jC-73" value="" style="endArrow=none;html=1;rounded=0;entryX=0.75;entryY=1;entryDx=0;entryDy=0;exitX=0.5;exitY=0;exitDx=0;exitDy=0;" parent="1" source="cJFdk1yozbm-KCTub-jC-72" target="cJFdk1yozbm-KCTub-jC-4" edge="1">
          <mxGeometry width="50" height="50" relative="1" as="geometry">
            <mxPoint x="1790" y="1354" as="sourcePoint" />
            <mxPoint x="1840" y="1304" as="targetPoint" />
          </mxGeometry>
        </mxCell>
        <mxCell id="cJFdk1yozbm-KCTub-jC-74" value="" style="endArrow=none;html=1;rounded=0;entryX=0.5;entryY=1;entryDx=0;entryDy=0;exitX=1;exitY=0.5;exitDx=0;exitDy=0;" parent="1" source="cJFdk1yozbm-KCTub-jC-5" target="cJFdk1yozbm-KCTub-jC-72" edge="1">
          <mxGeometry width="50" height="50" relative="1" as="geometry">
            <mxPoint x="1329" y="1445" as="sourcePoint" />
            <mxPoint x="1329" y="1395" as="targetPoint" />
            <Array as="points">
              <mxPoint x="1320" y="1420" />
            </Array>
          </mxGeometry>
        </mxCell>
        <mxCell id="cJFdk1yozbm-KCTub-jC-75" value="Được" style="rhombus;whiteSpace=wrap;html=1;" parent="1" vertex="1">
          <mxGeometry x="855" y="840" width="70" height="50" as="geometry" />
        </mxCell>
        <mxCell id="cJFdk1yozbm-KCTub-jC-76" value="ThanhToan" style="rounded=0;whiteSpace=wrap;html=1;" parent="1" vertex="1">
          <mxGeometry x="830" y="960" width="120" height="60" as="geometry" />
        </mxCell>
        <mxCell id="cJFdk1yozbm-KCTub-jC-77" value="" style="endArrow=none;html=1;rounded=0;entryX=0.5;entryY=1;entryDx=0;entryDy=0;exitX=0.5;exitY=0;exitDx=0;exitDy=0;" parent="1" source="cJFdk1yozbm-KCTub-jC-75" target="cJFdk1yozbm-KCTub-jC-2" edge="1">
          <mxGeometry width="50" height="50" relative="1" as="geometry">
            <mxPoint x="870" y="840" as="sourcePoint" />
            <mxPoint x="920" y="790" as="targetPoint" />
          </mxGeometry>
        </mxCell>
        <mxCell id="cJFdk1yozbm-KCTub-jC-78" value="" style="endArrow=none;html=1;rounded=0;entryX=0.5;entryY=1;entryDx=0;entryDy=0;exitX=0.5;exitY=0;exitDx=0;exitDy=0;" parent="1" source="cJFdk1yozbm-KCTub-jC-76" target="cJFdk1yozbm-KCTub-jC-75" edge="1">
          <mxGeometry width="50" height="50" relative="1" as="geometry">
            <mxPoint x="890" y="960" as="sourcePoint" />
            <mxPoint x="940" y="910" as="targetPoint" />
          </mxGeometry>
        </mxCell>
        <mxCell id="cJFdk1yozbm-KCTub-jC-79" value="" style="endArrow=none;html=1;rounded=0;exitX=0.888;exitY=0.74;exitDx=0;exitDy=0;exitPerimeter=0;entryX=0;entryY=0.5;entryDx=0;entryDy=0;" parent="1" source="cJFdk1yozbm-KCTub-jC-80" target="cJFdk1yozbm-KCTub-jC-76" edge="1">
          <mxGeometry width="50" height="50" relative="1" as="geometry">
            <mxPoint x="750" y="764" as="sourcePoint" />
            <mxPoint x="775" y="1114" as="targetPoint" />
          </mxGeometry>
        </mxCell>
        <mxCell id="cJFdk1yozbm-KCTub-jC-80" value="&lt;u&gt;MaThanhToan&lt;/u&gt;" style="ellipse;whiteSpace=wrap;html=1;fillColor=#FFFF21;fontColor=#000000;strokeColor=#B09500;fontStyle=1" parent="1" vertex="1">
          <mxGeometry x="610" y="850" width="100" height="40" as="geometry" />
        </mxCell>
        <mxCell id="cJFdk1yozbm-KCTub-jC-81" value="" style="endArrow=none;html=1;rounded=0;exitX=0.888;exitY=0.74;exitDx=0;exitDy=0;exitPerimeter=0;" parent="1" source="cJFdk1yozbm-KCTub-jC-82" edge="1">
          <mxGeometry width="50" height="50" relative="1" as="geometry">
            <mxPoint x="760" y="854" as="sourcePoint" />
            <mxPoint x="830" y="990" as="targetPoint" />
          </mxGeometry>
        </mxCell>
        <mxCell id="cJFdk1yozbm-KCTub-jC-82" value="MaHoaDon" style="ellipse;whiteSpace=wrap;html=1;" parent="1" vertex="1">
          <mxGeometry x="590" y="900" width="80" height="40" as="geometry" />
        </mxCell>
        <mxCell id="cJFdk1yozbm-KCTub-jC-83" value="" style="endArrow=none;html=1;rounded=0;exitX=0.888;exitY=0.74;exitDx=0;exitDy=0;exitPerimeter=0;" parent="1" source="cJFdk1yozbm-KCTub-jC-84" edge="1">
          <mxGeometry width="50" height="50" relative="1" as="geometry">
            <mxPoint x="815" y="913" as="sourcePoint" />
            <mxPoint x="830" y="990" as="targetPoint" />
          </mxGeometry>
        </mxCell>
        <mxCell id="cJFdk1yozbm-KCTub-jC-84" value="PhuongThuc" style="ellipse;whiteSpace=wrap;html=1;" parent="1" vertex="1">
          <mxGeometry x="630" y="960" width="80" height="40" as="geometry" />
        </mxCell>
        <mxCell id="cJFdk1yozbm-KCTub-jC-85" value="" style="endArrow=none;html=1;rounded=0;exitX=0;exitY=0.5;exitDx=0;exitDy=0;entryX=1;entryY=0.5;entryDx=0;entryDy=0;" parent="1" source="cJFdk1yozbm-KCTub-jC-86" target="cJFdk1yozbm-KCTub-jC-76" edge="1">
          <mxGeometry width="50" height="50" relative="1" as="geometry">
            <mxPoint x="640" y="953" as="sourcePoint" />
            <mxPoint x="710" y="1089" as="targetPoint" />
          </mxGeometry>
        </mxCell>
        <mxCell id="cJFdk1yozbm-KCTub-jC-86" value="TongTien" style="ellipse;whiteSpace=wrap;html=1;dashed=1;strokeWidth=2;" parent="1" vertex="1">
          <mxGeometry x="1060" y="900" width="80" height="40" as="geometry" />
        </mxCell>
        <mxCell id="cJFdk1yozbm-KCTub-jC-87" value="" style="endArrow=none;html=1;rounded=0;exitX=0.888;exitY=0.74;exitDx=0;exitDy=0;exitPerimeter=0;entryX=0;entryY=0.5;entryDx=0;entryDy=0;" parent="1" source="cJFdk1yozbm-KCTub-jC-88" target="cJFdk1yozbm-KCTub-jC-76" edge="1">
          <mxGeometry width="50" height="50" relative="1" as="geometry">
            <mxPoint x="785" y="998" as="sourcePoint" />
            <mxPoint x="855" y="1134" as="targetPoint" />
          </mxGeometry>
        </mxCell>
        <mxCell id="cJFdk1yozbm-KCTub-jC-88" value="NgayThanhToan" style="ellipse;whiteSpace=wrap;html=1;" parent="1" vertex="1">
          <mxGeometry x="680" y="1010" width="115" height="40" as="geometry" />
        </mxCell>
        <mxCell id="cJFdk1yozbm-KCTub-jC-89" value="" style="endArrow=none;html=1;rounded=0;exitX=0;exitY=0.5;exitDx=0;exitDy=0;entryX=1;entryY=0.5;entryDx=0;entryDy=0;" parent="1" source="cJFdk1yozbm-KCTub-jC-90" target="cJFdk1yozbm-KCTub-jC-76" edge="1">
          <mxGeometry width="50" height="50" relative="1" as="geometry">
            <mxPoint x="550" y="898" as="sourcePoint" />
            <mxPoint x="620" y="1034" as="targetPoint" />
          </mxGeometry>
        </mxCell>
        <mxCell id="cJFdk1yozbm-KCTub-jC-90" value="GiamGia" style="ellipse;whiteSpace=wrap;html=1;" parent="1" vertex="1">
          <mxGeometry x="1070" y="950" width="80" height="40" as="geometry" />
        </mxCell>
        <mxCell id="cJFdk1yozbm-KCTub-jC-91" value="" style="endArrow=none;html=1;rounded=0;exitX=0;exitY=0.5;exitDx=0;exitDy=0;entryX=1;entryY=0.5;entryDx=0;entryDy=0;" parent="1" source="cJFdk1yozbm-KCTub-jC-92" target="cJFdk1yozbm-KCTub-jC-76" edge="1">
          <mxGeometry width="50" height="50" relative="1" as="geometry">
            <mxPoint x="530" y="824" as="sourcePoint" />
            <mxPoint x="890" y="1020" as="targetPoint" />
          </mxGeometry>
        </mxCell>
        <mxCell id="cJFdk1yozbm-KCTub-jC-92" value="TienKhachDua" style="ellipse;whiteSpace=wrap;html=1;" parent="1" vertex="1">
          <mxGeometry x="1060" y="1000" width="80" height="40" as="geometry" />
        </mxCell>
        <mxCell id="cJFdk1yozbm-KCTub-jC-93" value="" style="endArrow=none;html=1;rounded=0;exitX=0;exitY=1;exitDx=0;exitDy=0;entryX=1;entryY=0.5;entryDx=0;entryDy=0;" parent="1" source="cJFdk1yozbm-KCTub-jC-94" target="cJFdk1yozbm-KCTub-jC-76" edge="1">
          <mxGeometry width="50" height="50" relative="1" as="geometry">
            <mxPoint x="970" y="888" as="sourcePoint" />
            <mxPoint x="1040" y="1024" as="targetPoint" />
          </mxGeometry>
        </mxCell>
        <mxCell id="cJFdk1yozbm-KCTub-jC-94" value="TienThoiLai" style="ellipse;whiteSpace=wrap;html=1;dashed=1;strokeWidth=2;" parent="1" vertex="1">
          <mxGeometry x="1000" y="860" width="80" height="40" as="geometry" />
        </mxCell>
        <mxCell id="cJFdk1yozbm-KCTub-jC-95" value="(1,1)" style="text;html=1;align=center;verticalAlign=middle;resizable=0;points=[];autosize=1;strokeColor=none;fillColor=none;" parent="1" vertex="1">
          <mxGeometry x="890" y="760" width="50" height="30" as="geometry" />
        </mxCell>
        <mxCell id="cJFdk1yozbm-KCTub-jC-96" value="(1,1)" style="text;html=1;align=center;verticalAlign=middle;resizable=0;points=[];autosize=1;strokeColor=none;fillColor=none;" parent="1" vertex="1">
          <mxGeometry x="890" y="930" width="50" height="30" as="geometry" />
        </mxCell>
        <mxCell id="cJFdk1yozbm-KCTub-jC-98" value="(1,1)" style="text;html=1;align=center;verticalAlign=middle;resizable=0;points=[];autosize=1;strokeColor=none;fillColor=none;" parent="1" vertex="1">
          <mxGeometry x="1260" y="1390" width="50" height="30" as="geometry" />
        </mxCell>
        <mxCell id="cJFdk1yozbm-KCTub-jC-99" value="" style="endArrow=none;html=1;rounded=0;entryX=0.5;entryY=1;entryDx=0;entryDy=0;exitX=0.5;exitY=0;exitDx=0;exitDy=0;" parent="1" source="cJFdk1yozbm-KCTub-jC-100" target="cJFdk1yozbm-KCTub-jC-22" edge="1">
          <mxGeometry width="50" height="50" relative="1" as="geometry">
            <mxPoint x="460" y="920" as="sourcePoint" />
            <mxPoint x="444.38" y="910" as="targetPoint" />
          </mxGeometry>
        </mxCell>
        <mxCell id="cJFdk1yozbm-KCTub-jC-100" value="Trống" style="ellipse;whiteSpace=wrap;html=1;" parent="1" vertex="1">
          <mxGeometry x="370" y="900" width="70" height="40" as="geometry" />
        </mxCell>
        <mxCell id="cJFdk1yozbm-KCTub-jC-101" value="Có người" style="ellipse;whiteSpace=wrap;html=1;" parent="1" vertex="1">
          <mxGeometry x="450" y="910" width="70" height="40" as="geometry" />
        </mxCell>
        <mxCell id="cJFdk1yozbm-KCTub-jC-102" value="" style="endArrow=none;html=1;rounded=0;entryX=0.5;entryY=1;entryDx=0;entryDy=0;exitX=0.5;exitY=0;exitDx=0;exitDy=0;" parent="1" source="cJFdk1yozbm-KCTub-jC-101" target="cJFdk1yozbm-KCTub-jC-22" edge="1">
          <mxGeometry width="50" height="50" relative="1" as="geometry">
            <mxPoint x="410" y="910" as="sourcePoint" />
            <mxPoint x="525" y="890" as="targetPoint" />
          </mxGeometry>
        </mxCell>
        <mxCell id="cJFdk1yozbm-KCTub-jC-103" value="" style="endArrow=none;html=1;rounded=0;exitX=0.888;exitY=0.74;exitDx=0;exitDy=0;exitPerimeter=0;entryX=0;entryY=0.5;entryDx=0;entryDy=0;" parent="1" source="cJFdk1yozbm-KCTub-jC-104" target="cJFdk1yozbm-KCTub-jC-84" edge="1">
          <mxGeometry width="50" height="50" relative="1" as="geometry">
            <mxPoint x="655" y="943" as="sourcePoint" />
            <mxPoint x="670" y="1020" as="targetPoint" />
          </mxGeometry>
        </mxCell>
        <mxCell id="cJFdk1yozbm-KCTub-jC-104" value="Tiền mặt" style="ellipse;whiteSpace=wrap;html=1;" parent="1" vertex="1">
          <mxGeometry x="475" y="980" width="80" height="40" as="geometry" />
        </mxCell>
        <mxCell id="cJFdk1yozbm-KCTub-jC-105" value="" style="endArrow=none;html=1;rounded=0;exitX=0.888;exitY=0.74;exitDx=0;exitDy=0;exitPerimeter=0;entryX=0;entryY=0.5;entryDx=0;entryDy=0;" parent="1" source="cJFdk1yozbm-KCTub-jC-106" target="cJFdk1yozbm-KCTub-jC-84" edge="1">
          <mxGeometry width="50" height="50" relative="1" as="geometry">
            <mxPoint x="635" y="973" as="sourcePoint" />
            <mxPoint x="650" y="1050" as="targetPoint" />
          </mxGeometry>
        </mxCell>
        <mxCell id="cJFdk1yozbm-KCTub-jC-106" value="Chuyển khoản" style="ellipse;whiteSpace=wrap;html=1;" parent="1" vertex="1">
          <mxGeometry x="500" y="1034" width="80" height="40" as="geometry" />
        </mxCell>
        <mxCell id="cJFdk1yozbm-KCTub-jC-107" value="" style="endArrow=none;html=1;rounded=0;exitX=0.5;exitY=1;exitDx=0;exitDy=0;entryX=0.5;entryY=0;entryDx=0;entryDy=0;" parent="1" source="cJFdk1yozbm-KCTub-jC-108" target="cJFdk1yozbm-KCTub-jC-28" edge="1">
          <mxGeometry width="50" height="50" relative="1" as="geometry">
            <mxPoint x="945" y="300" as="sourcePoint" />
            <mxPoint x="880" y="670" as="targetPoint" />
          </mxGeometry>
        </mxCell>
        <mxCell id="cJFdk1yozbm-KCTub-jC-108" value="Đã thanh toán" style="ellipse;whiteSpace=wrap;html=1;" parent="1" vertex="1">
          <mxGeometry x="820" y="530" width="70" height="40" as="geometry" />
        </mxCell>
        <mxCell id="cJFdk1yozbm-KCTub-jC-109" value="" style="endArrow=none;html=1;rounded=0;exitX=0.5;exitY=1;exitDx=0;exitDy=0;" parent="1" source="cJFdk1yozbm-KCTub-jC-110" edge="1">
          <mxGeometry width="50" height="50" relative="1" as="geometry">
            <mxPoint x="1055" y="300" as="sourcePoint" />
            <mxPoint x="880" y="600" as="targetPoint" />
          </mxGeometry>
        </mxCell>
        <mxCell id="cJFdk1yozbm-KCTub-jC-110" value="Chưa thanh toán" style="ellipse;whiteSpace=wrap;html=1;" parent="1" vertex="1">
          <mxGeometry x="925" y="530" width="70" height="40" as="geometry" />
        </mxCell>
        <mxCell id="cJFdk1yozbm-KCTub-jC-111" value="" style="endArrow=none;html=1;rounded=0;exitX=0.5;exitY=0;exitDx=0;exitDy=0;entryX=1;entryY=0.5;entryDx=0;entryDy=0;" parent="1" source="cJFdk1yozbm-KCTub-jC-6" target="cJFdk1yozbm-KCTub-jC-112" edge="1">
          <mxGeometry width="50" height="50" relative="1" as="geometry">
            <mxPoint x="590" y="650" as="sourcePoint" />
            <mxPoint x="660" y="650" as="targetPoint" />
          </mxGeometry>
        </mxCell>
        <mxCell id="cJFdk1yozbm-KCTub-jC-112" value="Số lượng khách" style="ellipse;whiteSpace=wrap;html=1;" parent="1" vertex="1">
          <mxGeometry x="590" y="630" width="70" height="40" as="geometry" />
        </mxCell>
        <mxCell id="cJFdk1yozbm-KCTub-jC-113" value="1" style="text;html=1;align=center;verticalAlign=middle;resizable=0;points=[];autosize=1;strokeColor=none;fillColor=none;" parent="1" vertex="1">
          <mxGeometry x="800" y="700" width="30" height="30" as="geometry" />
        </mxCell>
        <mxCell id="cJFdk1yozbm-KCTub-jC-114" value="1" style="text;html=1;align=center;verticalAlign=middle;resizable=0;points=[];autosize=1;strokeColor=none;fillColor=none;" parent="1" vertex="1">
          <mxGeometry x="580" y="700" width="30" height="30" as="geometry" />
        </mxCell>
        <mxCell id="cJFdk1yozbm-KCTub-jC-115" value="1" style="text;html=1;align=center;verticalAlign=middle;resizable=0;points=[];autosize=1;strokeColor=none;fillColor=none;" parent="1" vertex="1">
          <mxGeometry x="860" y="760" width="30" height="30" as="geometry" />
        </mxCell>
        <mxCell id="cJFdk1yozbm-KCTub-jC-116" value="1" style="text;html=1;align=center;verticalAlign=middle;resizable=0;points=[];autosize=1;strokeColor=none;fillColor=none;" parent="1" vertex="1">
          <mxGeometry x="860" y="930" width="30" height="30" as="geometry" />
        </mxCell>
        <mxCell id="cJFdk1yozbm-KCTub-jC-117" value="n" style="text;html=1;align=center;verticalAlign=middle;resizable=0;points=[];autosize=1;strokeColor=none;fillColor=none;" parent="1" vertex="1">
          <mxGeometry x="1320" y="835" width="30" height="30" as="geometry" />
        </mxCell>
        <mxCell id="cJFdk1yozbm-KCTub-jC-118" value="1" style="text;html=1;align=center;verticalAlign=middle;resizable=0;points=[];autosize=1;strokeColor=none;fillColor=none;" parent="1" vertex="1">
          <mxGeometry x="950" y="700" width="30" height="30" as="geometry" />
        </mxCell>
        <mxCell id="cJFdk1yozbm-KCTub-jC-119" value="1" style="text;html=1;align=center;verticalAlign=middle;resizable=0;points=[];autosize=1;strokeColor=none;fillColor=none;" parent="1" vertex="1">
          <mxGeometry x="1260" y="1144" width="30" height="30" as="geometry" />
        </mxCell>
        <mxCell id="cJFdk1yozbm-KCTub-jC-120" value="n" style="text;html=1;align=center;verticalAlign=middle;resizable=0;points=[];autosize=1;strokeColor=none;fillColor=none;" parent="1" vertex="1">
          <mxGeometry x="1260" y="940" width="30" height="30" as="geometry" />
        </mxCell>
        <mxCell id="cJFdk1yozbm-KCTub-jC-121" value="n" style="text;html=1;align=center;verticalAlign=middle;resizable=0;points=[];autosize=1;strokeColor=none;fillColor=none;" parent="1" vertex="1">
          <mxGeometry x="1610" y="1204" width="30" height="30" as="geometry" />
        </mxCell>
        <mxCell id="cJFdk1yozbm-KCTub-jC-122" value="n" style="text;html=1;align=center;verticalAlign=middle;resizable=0;points=[];autosize=1;strokeColor=none;fillColor=none;" parent="1" vertex="1">
          <mxGeometry x="1350" y="1204" width="30" height="30" as="geometry" />
        </mxCell>
        <mxCell id="cJFdk1yozbm-KCTub-jC-124" value="n" style="text;html=1;align=center;verticalAlign=middle;resizable=0;points=[];autosize=1;strokeColor=none;fillColor=none;" parent="1" vertex="1">
          <mxGeometry x="1270" y="1420" width="30" height="30" as="geometry" />
        </mxCell>
        <mxCell id="jrMM2hak_1y1M8E7cDnT-1" value="&lt;i&gt;&lt;u&gt;MaBan&lt;/u&gt;&lt;/i&gt;" style="ellipse;whiteSpace=wrap;html=1;fillColor=light-dark(#FFFF66,var(--ge-dark-color, #121212));" parent="1" vertex="1">
          <mxGeometry x="340" y="790" width="70" height="40" as="geometry" />
        </mxCell>
        <mxCell id="EBBfr7s3wfICbPc6iu30-1" value="n" style="text;html=1;align=center;verticalAlign=middle;resizable=0;points=[];autosize=1;strokeColor=none;fillColor=none;" parent="1" vertex="1">
          <mxGeometry x="1320" y="1234" width="30" height="30" as="geometry" />
        </mxCell>
        <mxCell id="qI8Je5fcXb6nD2V47fmb-1" value="" style="endArrow=none;html=1;rounded=0;exitX=1;exitY=0;exitDx=0;exitDy=0;entryX=0;entryY=0.5;entryDx=0;entryDy=0;" edge="1" parent="1" source="qI8Je5fcXb6nD2V47fmb-2" target="cJFdk1yozbm-KCTub-jC-4">
          <mxGeometry width="50" height="50" relative="1" as="geometry">
            <mxPoint x="1170" y="1410" as="sourcePoint" />
            <mxPoint x="1250" y="1224" as="targetPoint" />
          </mxGeometry>
        </mxCell>
        <mxCell id="qI8Je5fcXb6nD2V47fmb-2" value="MaDanhMuc" style="ellipse;whiteSpace=wrap;html=1;" vertex="1" parent="1">
          <mxGeometry x="1120" y="1300" width="80" height="40" as="geometry" />
        </mxCell>
        <mxCell id="CHwF57G4GxhmaZ9nTBkK-1" value="Mon_ThucDon" style="rounded=0;whiteSpace=wrap;html=1;" vertex="1" parent="1">
          <mxGeometry x="1430" y="1330" width="120" height="60" as="geometry" />
        </mxCell>
        <mxCell id="CHwF57G4GxhmaZ9nTBkK-2" value="" style="endArrow=none;html=1;rounded=0;entryX=1;entryY=0.5;entryDx=0;entryDy=0;exitX=0;exitY=0.5;exitDx=0;exitDy=0;" edge="1" parent="1" source="CHwF57G4GxhmaZ9nTBkK-3" target="CHwF57G4GxhmaZ9nTBkK-1">
          <mxGeometry width="50" height="50" relative="1" as="geometry">
            <mxPoint x="1680" y="1396" as="sourcePoint" />
            <mxPoint x="1620" y="1436" as="targetPoint" />
          </mxGeometry>
        </mxCell>
        <mxCell id="CHwF57G4GxhmaZ9nTBkK-3" value="&lt;u&gt;MaThucDon&lt;/u&gt;" style="ellipse;whiteSpace=wrap;html=1;" vertex="1" parent="1">
          <mxGeometry x="1700" y="1306" width="80" height="40" as="geometry" />
        </mxCell>
        <mxCell id="CHwF57G4GxhmaZ9nTBkK-4" value="" style="endArrow=none;html=1;rounded=0;entryX=1;entryY=0.5;entryDx=0;entryDy=0;exitX=0;exitY=0.5;exitDx=0;exitDy=0;" edge="1" parent="1" source="CHwF57G4GxhmaZ9nTBkK-5" target="CHwF57G4GxhmaZ9nTBkK-1">
          <mxGeometry width="50" height="50" relative="1" as="geometry">
            <mxPoint x="1690" y="1476" as="sourcePoint" />
            <mxPoint x="1610" y="1446" as="targetPoint" />
          </mxGeometry>
        </mxCell>
        <mxCell id="CHwF57G4GxhmaZ9nTBkK-5" value="&lt;u&gt;MaMon&lt;/u&gt;" style="ellipse;whiteSpace=wrap;html=1;" vertex="1" parent="1">
          <mxGeometry x="1710" y="1386" width="80" height="40" as="geometry" />
        </mxCell>
        <mxCell id="CHwF57G4GxhmaZ9nTBkK-6" value="" style="endArrow=none;html=1;rounded=0;entryX=0.5;entryY=1;entryDx=0;entryDy=0;exitX=0.5;exitY=0;exitDx=0;exitDy=0;" edge="1" parent="1" source="CHwF57G4GxhmaZ9nTBkK-1" target="cJFdk1yozbm-KCTub-jC-9">
          <mxGeometry width="50" height="50" relative="1" as="geometry">
            <mxPoint x="1580" y="1326" as="sourcePoint" />
            <mxPoint x="1490" y="1240" as="targetPoint" />
          </mxGeometry>
        </mxCell>
      </root>
    </mxGraphModel>
  </diagram>
</mxfile>
